<svg xmlns="http://www.w3.org/2000/svg" width="100" height="30" viewBox="0 0 100 30">
    <g fill="none" fill-rule="evenodd">
        <g fill="#FFF">
            <path d="M96.591 7.6l-.218.802-.231-.803h-.359v1.1h.228v-.84l.242.84h.215l.247-.84v.84h.234V7.6h-.358zm-1.873 0v.18h.3v.92h.24v-.92h.296V7.6h-.836zM78.114 15.993a2.502 2.502 0 0 1-.903.86c-.377.214-.845.322-1.394.322-.548 0-1.014-.108-1.383-.322a2.522 2.522 0 0 1-.89-.86 3.62 3.62 0 0 1-.467-1.196 6.873 6.873 0 0 1 0-2.702c.09-.45.248-.854.467-1.2.223-.348.521-.637.888-.857.37-.221.837-.334 1.385-.334.549 0 1.018.113 1.396.334.375.22.678.509.9.858.22.346.377.75.468 1.198a6.869 6.869 0 0 1 0 2.703 3.657 3.657 0 0 1-.467 1.196zm.096-7.976c-.71-.277-1.515-.418-2.393-.418-.877 0-1.678.14-2.38.418a5.241 5.241 0 0 0-1.813 1.176 5.19 5.19 0 0 0-1.164 1.84c-.273.719-.411 1.533-.411 2.418 0 .885.138 1.695.41 2.407.273.71.664 1.325 1.165 1.829.5.503 1.11.894 1.811 1.164.703.27 1.505.407 2.382.407.878 0 1.684-.137 2.395-.407a5.09 5.09 0 0 0 1.82-1.164c.501-.504.893-1.12 1.165-1.829.273-.713.412-1.523.412-2.407 0-.884-.139-1.698-.412-2.419a5.206 5.206 0 0 0-1.164-1.839 5.227 5.227 0 0 0-1.823-1.176zM92.575 8.832c-.295-.382-.705-.686-1.22-.903-.52-.219-1.198-.33-2.016-.33-.64 0-1.275.147-1.889.437-.607.287-1.253.754-1.635 1.386l-.035.057c-.018.03-.04.043-.069.043-.028 0-.041-.014-.041-.043V7.905h-2.74v11.07h2.895v-5.809c0-1.171.2-2.03.596-2.551.405-.532 1.06-.801 1.948-.801.79 0 1.35.25 1.666.743.305.476.46 1.2.46 2.15v6.267h2.893V12.14c0-.687-.062-1.323-.185-1.888-.12-.557-.332-1.034-.628-1.419M38.988 14.384L32.187 3.628h-3.122v15.376h2.871V8.198l.23.356 6.55 10.45h3.145V3.628h-2.872v10.756M51.247 15.993a2.509 2.509 0 0 1-.902.86c-.378.214-.847.322-1.394.322-.549 0-1.014-.108-1.384-.322a2.523 2.523 0 0 1-.89-.86 3.623 3.623 0 0 1-.467-1.196 6.873 6.873 0 0 1 0-2.702c.09-.45.247-.853.467-1.2.223-.348.521-.637.889-.857.37-.221.836-.334 1.385-.334.548 0 1.017.113 1.395.334.375.22.678.509.9.858.22.346.377.75.468 1.198a6.869 6.869 0 0 1 0 2.703c-.09.441-.248.844-.467 1.196zm.097-7.976c-.71-.277-1.516-.418-2.393-.418-.878 0-1.68.14-2.382.418a5.239 5.239 0 0 0-1.811 1.176 5.182 5.182 0 0 0-1.165 1.84c-.273.719-.411 1.533-.411 2.418 0 .885.138 1.695.41 2.407.273.71.665 1.325 1.166 1.829.5.503 1.11.894 1.81 1.164.703.27 1.505.407 2.383.407.877 0 1.682-.137 2.394-.407a5.102 5.102 0 0 0 1.821-1.164c.5-.504.893-1.12 1.164-1.829.274-.713.412-1.522.412-2.407s-.138-1.699-.412-2.419a5.189 5.189 0 0 0-1.164-1.839 5.236 5.236 0 0 0-1.822-1.176zM67.121 4.582l-2.893-.028-.031 3.208h-.753s-1.376-.053-2.572.387c-.734.27-1.349.742-1.743 1.457-.077.14-.146.291-.206.451-.01.035-.032.052-.067.052s-.053-.017-.053-.052V7.96h-2.739v11.068h2.894V14.05c0-.517.052-1.004.157-1.447.066-.286.168-.549.293-.791.523-.837 1.657-1.673 4.099-1.697h.667l-.063 6.456c-.005.546.083.992.26 1.324.176.33.422.59.731.77.314.184.684.311 1.101.378.425.069.882.106 1.36.11.297.004.615-.001.943-.013.277-.01.535-.03.768-.063l.021-2.164c-.108.017-.22.03-.333.039-.165.013-.34.019-.519.017-.567-.005-.94-.105-1.14-.308-.199-.201-.294-.572-.288-1.135l.053-5.411h2.227V7.762H67.09l.031-3.18"/>
        </g>
        <path fill="#FDBB30" d="M12.964 8.118a8.596 8.596 0 0 0-6.106 2.523 8.553 8.553 0 0 0-2.53 6.09c0 2.3.9 4.465 2.532 6.094a8.594 8.594 0 0 0 6.104 2.521 8.597 8.597 0 0 0 6.108-2.524 8.554 8.554 0 0 0 2.528-6.09 8.56 8.56 0 0 0-2.528-6.092 8.605 8.605 0 0 0-6.108-2.522zm0 21.215c-6.963 0-12.63-5.654-12.63-12.602 0-6.946 5.667-12.599 12.63-12.6 6.964.001 12.63 5.654 12.63 12.6 0 6.948-5.666 12.602-12.63 12.602zm13.76-26.16v-.981h.985v.981h-.986zm0-1.955V.233h.985v.985h-.986zm-2.771 2.907v-.959h.92v.96h-.92z"/>
        <path fill="#FFF" d="M22.129 5.968v-.917h.928v.917h-.928zm2.744-.918v-.924h1.03v.924h-1.03zm-3.666 0v-.879h.923v.88h-.923zm2.746.918v-.917h.92v.917h-.92zm1.796-3.776v-.974h.974v.974h-.974zm-1.796.974v-.974h1.796v.974h-1.796zm-.896 1.884V3.166h.895V5.05h-.895zm0 .918h.896v1.947h-.794v.773h-.823v1.121H21.6l.003.93h-.913V9.8h-.935v.939h.935v1.031h-.925v1.072h-.773v.924h-.736v1.026c-1.377 1.978-2.54 4.386-3.342 6.53-.379 1.014-2.257.86-2.677-.136-.792-1.89-1.613-4.258-4.22-7.117-1.135-1.169-.312-1.911.372-1.706 1.267.412 2.875 1.554 4.946 4.43.576-1.43 2.477-4.938 3.236-6.063h.675v-.921h.614v-.917h.927V7.456h.978v.916h.922v-.916h-.922v-.822h.825v-.666h1.538v.924h.928v-.924z"/>
        <g>
            <path fill="#FFF" d="M40.27 27.766h3.339v1.264h-4.974v-6.857h1.634zM44.312 29.03h1.514v-5.388h-1.514zM44.312 22.896h1.514v-1.292h-1.514zM47.43 29.03v-4.212h-.832v-1.176h.832v-.255c0-.676.09-1.028.32-1.253.231-.226.492-.334 1.084-.334h1.264v1.137h-.743c-.2 0-.26.02-.32.068-.05.06-.07.167-.07.432v.215h1.133v1.166h-1.124v4.212H47.43zM52.003 25.837h2.036c0-.725-.05-.921-.12-1-.06-.059-.15-.088-.462-.088h-.832c-.26 0-.421.02-.491.098-.07.069-.12.235-.13.99zm0 .919c.01.852.07 1 .13 1.07.07.077.231.097.492.097h.933c.31 0 .39-.03.45-.098.051-.059.071-.104.081-.486h1.414c-.01.803-.1 1.113-.37 1.378-.171.166-.392.313-.984.313h-2.046c-.561 0-.852-.088-1.093-.333-.36-.353-.501-.774-.501-2.36 0-1.588.14-2.01.501-2.372.231-.235.532-.323 1.093-.323h1.866c.561 0 .862.088 1.093.323.36.353.441.774.441 2.322v.253c0 .157-.04.216-.22.216h-3.28zM57.181 28.364h3.57v.666H56.39v-6.857h.792zM62.21 28.237c.121.107.272.147.653.147h1.243c.381 0 .532-.04.642-.147.16-.157.25-.412.25-1.832 0-1.411-.09-1.666-.25-1.822-.11-.118-.26-.147-.642-.147h-1.243c-.381 0-.532.029-.652.147-.16.156-.241.41-.241 1.822 0 1.42.08 1.675.24 1.832m-.52.5c-.342-.334-.462-.755-.462-2.332 0-1.567.12-1.989.461-2.322.231-.225.542-.294 1.093-.294h1.404c.542 0 .863.069 1.084.294.35.333.47.755.47 2.322 0 1.577-.12 1.998-.47 2.331-.221.226-.542.294-1.084.294h-1.404c-.551 0-.862-.068-1.093-.294M70.81 27.257c-.03.95-.13 1.254-.39 1.509-.19.186-.442.264-.953.264h-1.414c-.552 0-.863-.068-1.093-.294-.341-.333-.462-.754-.462-2.331 0-1.568.12-1.989.462-2.322.23-.225.541-.294 1.093-.294h1.404c.531 0 .762.069.962.265.251.245.351.578.371 1.45h-.722c-.03-.667-.09-.823-.2-.931-.11-.108-.23-.137-.562-.137h-1.173c-.381 0-.531.029-.652.147-.16.156-.24.411-.24 1.822 0 1.42.08 1.675.24 1.832.12.107.27.147.652.147h1.173c.331 0 .462-.03.582-.138.12-.117.18-.323.2-.99h.723zM71.638 29.03v-7.053h.742v4.105h.552l1.976-2.293h.892l-2.287 2.557 2.367 2.684h-.932l-2.036-2.341h-.532v2.341z"/>
            <path fill="#D0202E" d="M36.527 22.217c-.586-.545-1.832-.661-3.425-.661-1.593 0-2.839.116-3.424.66-.587.546-.678 1.389-.678 3.323s.091 2.777.678 3.323c.585.545 1.83.66 3.424.66 1.593 0 2.839-.115 3.425-.66.586-.546.677-1.389.677-3.323s-.091-2.777-.677-3.322"/>
            <path fill="#FFF" d="M34.106 23.506h-.425a.573.573 0 0 0-.579-.566.573.573 0 0 0-.579.566h-.425c0-.541.45-.982 1.004-.982a.994.994 0 0 1 1.004.982M33.269 25.144v.57h-.333v-.57a.36.36 0 0 1-.204-.323c0-.2.166-.361.37-.361.205 0 .37.161.37.361a.36.36 0 0 1-.203.323zm-1.591-1.295v2.498h.472v2.078h.712v-1.514h.48v1.514h.712v-2.078h.472V23.85h-2.848zM77.603 23.556l-.174.648-.183-.648h-.286v.888h.181v-.68l.193.68h.171l.197-.68v.68h.187v-.888h-.286zm-1.492 0v.145h.24v.743h.19v-.743h.236v-.145h-.666z"/>
        </g>
        <path d="M0 0h100v30H0z"/>
    </g>
</svg>
