<svg xmlns="http://www.w3.org/2000/svg" width="100" height="30" viewBox="0 0 100 30">
    <g fill="none" fill-rule="evenodd">
        <g fill="#000">
            <path d="M96.99 7.433l-.22.81-.232-.81h-.361v1.109h.229v-.848l.244.848h.216l.249-.848v.848h.236V7.433h-.36zm-1.887 0v.182h.303v.927h.24v-.927h.3v-.182h-.843zM78.373 15.891c-.225.36-.53.652-.91.867-.38.215-.852.324-1.404.324-.553 0-1.022-.109-1.394-.325a2.541 2.541 0 0 1-.897-.866 3.648 3.648 0 0 1-.47-1.206 6.925 6.925 0 0 1 0-2.723c.09-.452.25-.859.47-1.207.224-.351.525-.642.895-.864.373-.224.843-.337 1.396-.337.552 0 1.025.113 1.406.336.378.223.683.513.907.865.221.35.38.755.471 1.207a6.921 6.921 0 0 1 0 2.723c-.092.445-.25.85-.47 1.206zm.097-8.036c-.715-.28-1.527-.422-2.411-.422-.884 0-1.692.142-2.4.422a5.281 5.281 0 0 0-1.825 1.184c-.505.507-.9 1.131-1.174 1.853-.275.725-.414 1.545-.414 2.437 0 .893.14 1.708.414 2.426a5.246 5.246 0 0 0 1.174 1.842 5.149 5.149 0 0 0 1.824 1.173c.709.272 1.517.41 2.4.41.885 0 1.697-.138 2.413-.41a5.13 5.13 0 0 0 1.835-1.173c.504-.507.9-1.127 1.173-1.842.275-.718.415-1.535.415-2.426 0-.89-.14-1.71-.415-2.437a5.245 5.245 0 0 0-1.173-1.853 5.267 5.267 0 0 0-1.836-1.184zM92.944 8.675c-.297-.385-.71-.691-1.23-.91-.523-.22-1.206-.332-2.03-.332-.645 0-1.285.148-1.904.44-.612.29-1.262.76-1.648 1.397l-.035.058c-.018.029-.04.043-.07.043-.027 0-.04-.014-.04-.043V7.74h-2.761v11.154h2.916v-5.852c0-1.181.202-2.047.6-2.571.409-.536 1.07-.807 1.964-.807.796 0 1.36.252 1.679.748.307.48.463 1.21.463 2.167v6.315h2.915v-6.888c0-.692-.062-1.332-.186-1.902-.122-.56-.335-1.042-.633-1.43M38.95 14.27L32.095 3.432H28.95v15.493h2.894V8.036l.23.359 6.601 10.53h3.168V3.432H38.95V14.27M51.301 15.891c-.224.36-.53.652-.909.867-.38.215-.853.324-1.404.324-.553 0-1.022-.109-1.394-.325a2.542 2.542 0 0 1-.898-.866 3.65 3.65 0 0 1-.47-1.206 6.925 6.925 0 0 1 0-2.723c.09-.452.25-.858.47-1.207.225-.351.526-.642.896-.864.373-.224.843-.337 1.396-.337.552 0 1.025.113 1.405.336.378.222.684.513.907.865.222.35.38.755.472 1.207a6.921 6.921 0 0 1 0 2.723c-.092.445-.25.85-.47 1.206zm.098-8.036c-.716-.28-1.527-.422-2.411-.422-.885 0-1.692.142-2.4.422a5.279 5.279 0 0 0-1.825 1.184c-.505.507-.9 1.131-1.174 1.853-.275.725-.414 1.545-.414 2.437 0 .893.139 1.708.414 2.426.274.715.67 1.335 1.174 1.842a5.146 5.146 0 0 0 1.824 1.173c.708.272 1.516.41 2.4.41.885 0 1.696-.138 2.413-.41a5.14 5.14 0 0 0 1.835-1.173c.504-.507.9-1.127 1.173-1.842.275-.718.415-1.534.415-2.426 0-.891-.14-1.711-.416-2.437a5.228 5.228 0 0 0-1.172-1.853A5.276 5.276 0 0 0 51.4 7.855zM67.296 4.393l-2.915-.028-.031 3.232h-.758s-1.388-.054-2.593.39c-.739.272-1.358.748-1.756 1.469a3.479 3.479 0 0 0-.208.454c-.009.035-.031.052-.067.052-.035 0-.053-.017-.053-.052V7.795h-2.76v11.153h2.916v-5.015c0-.521.052-1.012.158-1.458a3.41 3.41 0 0 1 .296-.797c.527-.844 1.669-1.686 4.13-1.71h.672l-.064 6.505c-.005.55.084 1 .262 1.335.178.332.426.594.737.775.316.185.689.314 1.11.381.427.07.888.106 1.369.111.3.004.62-.001.95-.013.28-.01.54-.031.775-.064l.021-2.18c-.109.017-.222.03-.336.039-.166.013-.343.02-.523.017-.571-.005-.946-.106-1.148-.31-.201-.203-.296-.577-.29-1.143l.053-5.453h2.244V7.597h-2.222l.031-3.204"/>
        </g>
        <path fill="#FDBB30" d="M12.727 7.956a8.662 8.662 0 0 0-6.152 2.542 8.618 8.618 0 0 0-2.55 6.137c0 2.318.907 4.498 2.551 6.14a8.66 8.66 0 0 0 6.151 2.54 8.662 8.662 0 0 0 6.154-2.543 8.619 8.619 0 0 0 2.547-6.137 8.625 8.625 0 0 0-2.547-6.138 8.67 8.67 0 0 0-6.154-2.54zm0 21.377C5.711 29.332.001 23.635 0 16.635c0-7 5.711-12.695 12.727-12.696 7.016 0 12.727 5.696 12.727 12.696s-5.71 12.697-12.727 12.698zm13.864-26.36v-.988h.993v.989h-.993zm0-1.97V.011h.993v.992h-.993zm-2.792 2.93v-.966h.928v.966h-.928z"/>
        <path fill="#000" d="M21.962 5.79v-.924h.935v.924h-.935zm2.765-.925v-.931h1.038v.931h-1.038zm-3.694 0v-.886h.93v.886h-.93zm2.766.925v-.924h.928v.924h-.928zm1.81-3.805v-.982h.982v.982h-.982zm-1.81.982v-.982h1.81v.982H23.8zm-.902 1.898V2.967h.901v1.898h-.901zm0 .925h.902v1.962H23v.778h-.83v1.13h-.74l.004.936h-.92v-.945h-.943v.945h.942v1.04h-.931v1.08h-.78v.93h-.741v1.034c-1.387 1.993-2.56 4.42-3.368 6.581-.38 1.021-2.274.866-2.696-.138-.799-1.904-1.626-4.29-4.253-7.171-1.144-1.178-.314-1.926.375-1.719 1.277.416 2.897 1.566 4.984 4.464.58-1.442 2.495-4.975 3.26-6.11h.68V9.66h.62v-.924h.933V7.289h.986v.923h.928v-.923h-.928v-.828h.83V5.79h1.55v.93h.936v-.93z"/>
        <g>
            <path fill="#000" d="M40.24 27.754h3.365v1.273h-5.012v-6.91h1.647zM44.313 29.027h1.526v-5.429h-1.526zM44.313 22.846h1.526v-1.301h-1.526zM47.455 29.027v-4.244h-.839v-1.185h.84v-.256c0-.682.09-1.037.322-1.264.233-.227.496-.336 1.092-.336h1.273v1.145h-.748c-.202 0-.262.02-.323.07-.05.059-.07.167-.07.434v.217h1.141v1.175h-1.132v4.244h-1.556zM52.063 25.81h2.052c0-.731-.051-.929-.122-1.007-.06-.06-.151-.09-.465-.09h-.838c-.263 0-.425.02-.495.1-.071.068-.122.236-.132.996zm0 .926c.01.858.07 1.008.132 1.077.07.079.232.099.495.099h.94c.313 0 .394-.03.454-.099.05-.06.071-.105.081-.49h1.425c-.01.809-.101 1.122-.374 1.388-.172.168-.394.316-.99.316h-2.062c-.566 0-.859-.089-1.101-.335-.364-.356-.505-.78-.505-2.38 0-1.598.141-2.023.505-2.388.232-.237.535-.326 1.101-.326h1.88c.566 0 .869.09 1.101.326.364.355.445.78.445 2.34v.254c0 .158-.04.218-.223.218h-3.304zM57.28 28.356h3.598v.671h-4.395v-6.91h.798zM62.349 28.228c.12.108.273.148.656.148h1.253c.384 0 .536-.04.647-.148.162-.158.253-.415.253-1.846 0-1.422-.091-1.678-.253-1.836-.11-.119-.263-.148-.647-.148h-1.253c-.383 0-.535.03-.656.148-.162.158-.243.414-.243 1.836 0 1.431.081 1.688.243 1.846m-.526.503c-.344-.335-.465-.76-.465-2.35 0-1.578.121-2.003.465-2.339.233-.227.546-.296 1.102-.296h1.414c.546 0 .87.07 1.092.296.353.336.474.76.474 2.34 0 1.59-.12 2.014-.474 2.35-.223.226-.546.295-1.092.295h-1.414c-.556 0-.87-.069-1.102-.296M71.014 27.24c-.03.958-.131 1.264-.394 1.52-.192.188-.445.267-.96.267h-1.425c-.556 0-.87-.069-1.101-.296-.344-.335-.465-.76-.465-2.35 0-1.578.121-2.003.465-2.339.232-.227.545-.296 1.101-.296h1.415c.535 0 .768.07.97.267.252.247.353.582.374 1.46h-.728c-.03-.67-.09-.828-.202-.937-.111-.109-.232-.138-.566-.138h-1.182c-.384 0-.536.03-.657.148-.162.158-.242.414-.242 1.836 0 1.431.08 1.688.242 1.846.121.108.273.148.657.148h1.182c.334 0 .465-.03.586-.138.121-.119.182-.326.202-.998h.728zM71.848 29.027V21.92h.748v4.136h.555l1.99-2.31h.9l-2.304 2.576 2.385 2.705h-.94l-2.051-2.359h-.535v2.36z"/>
            <path fill="#D0202E" d="M36.469 22.162c-.59-.55-1.846-.666-3.451-.666s-2.86.117-3.45.666c-.59.55-.683 1.399-.683 3.348 0 1.948.092 2.798.683 3.347.59.55 1.845.666 3.45.666 1.605 0 2.86-.116 3.45-.666.592-.55.684-1.399.684-3.347 0-1.95-.092-2.798-.683-3.348"/>
            <path fill="#FFF" d="M34.03 23.46h-.428a.577.577 0 0 0-.584-.57.577.577 0 0 0-.583.57h-.429c0-.544.454-.988 1.012-.988s1.012.444 1.012.989M33.186 25.112v.574h-.335v-.574a.363.363 0 0 1-.206-.326c0-.201.167-.364.373-.364s.373.163.373.364a.363.363 0 0 1-.205.326zm-1.603-1.305v2.517h.476v2.094h.718v-1.526h.483v1.526h.717v-2.094h.476v-2.517h-2.87z"/>
            <path fill="#000" d="M77.858 23.511l-.175.654-.185-.654h-.288v.896h.182v-.685l.195.685h.172l.198-.685v.685h.189v-.896h-.288zm-1.503 0v.147h.24v.749h.192v-.75h.239v-.146h-.671z"/>
        </g>
        <path d="M0 0h100v30H0z"/>
    </g>
</svg>
