<svg xmlns="http://www.w3.org/2000/svg" xmlns:xlink="http://www.w3.org/1999/xlink" width="18" height="28" viewBox="0 0 18 28">
    <defs>
        <path id="a" d="M.043 2.853H6.67V.106H.043z"/>
        <path id="c" d="M.013 25.036V.133h16.412v24.903z"/>
    </defs>
    <g fill="none" fill-rule="evenodd">
        <path fill="#FFF" d="M11.998 23.628a.782.782 0 0 1-.79-.774c0-.427.355-.773.79-.773.437 0 .79.346.79.773a.781.781 0 0 1-.79.774zm0-2.282c-.85 0-1.538.675-1.538 1.508s.689 1.508 1.538 1.508c.85 0 1.54-.675 1.54-1.508s-.69-1.508-1.54-1.508zM4.941 23.628a.782.782 0 0 1-.79-.774c0-.427.354-.773.79-.773.436 0 .79.346.79.773a.782.782 0 0 1-.79.774zm0-2.282c-.85 0-1.539.675-1.539 1.508s.69 1.508 1.539 1.508c.85 0 1.539-.675 1.539-1.508s-.689-1.508-1.539-1.508zM10.36 23.67a1.581 1.581 0 0 1-.302.055c-.263 0-.32-.089-.32-.336v-1.392h.629v-.583h-.63v-.823H9.03l-.149.823h-.532c-.404.002-.708.243-.903.621l-.246-.621H6.69v2.894h.868v-1.26c0-.634.382-1.04.836-1.051h.474v1.437c0 .678.355.93.932.93.297 0 .525-.062.662-.107l-.102-.587M14.589 22.33v1.978h-.844v-2.894h.512l.172.442"/>
        <path fill="#FFF" d="M14.425 21.86c.256-.293.607-.513 1.018-.513.703 0 .991.549.991 1.058v1.903h-.868v-1.88c0-.247-.21-.382-.44-.382-.242 0-.399.137-.536.283M.018 20.367h.966l1.328 2.477v-2.477h.801v3.941h-.876L.82 21.583v2.725H.018v-3.941"/>
        <g transform="translate(0 25.134)">
            <mask id="b" fill="#fff">
                <use xlink:href="#a"/>
            </mask>
            <path fill="#FFF" d="M1.064 1.498C1.064 1.245.983.95.69.95a.513.513 0 0 0-.37.176v.828c.1.108.194.163.336.163.264 0 .408-.225.408-.619zm-.798.616l-.06.189H.043V.137h.276v.789A.606.606 0 0 1 .753.722c.422 0 .607.41.607.776 0 .493-.26.83-.651.83a.54.54 0 0 1-.443-.214zM1.542.753h.282l.397 1.309.37-1.31h.274L2.334 2.42c-.092.287-.248.447-.553.447a.693.693 0 0 1-.192-.028l.034-.197c.041.006.079.015.132.015.164 0 .286-.074.35-.265L1.541.753M3.694 2.077l.135-.19a.999.999 0 0 0 .623.208c.289 0 .455-.135.455-.366 0-.259-.204-.342-.496-.44-.315-.108-.604-.247-.604-.64 0-.352.283-.543.657-.543.265 0 .422.043.591.138l-.113.21A.952.952 0 0 0 4.46.337c-.236 0-.396.089-.396.308 0 .23.154.305.478.416.308.104.635.237.635.662 0 .38-.273.604-.726.604-.359 0-.61-.13-.758-.25M5.347.753h.283l.396 1.309.37-1.31h.274L6.14 2.42c-.091.287-.248.447-.553.447a.69.69 0 0 1-.192-.028l.034-.197c.042.006.08.015.133.015.163 0 .286-.074.348-.265L5.347.753" mask="url(#b)"/>
        </g>
        <path fill="#FFF" d="M8.631 25.856c.32 0 .403.264.403.52v1.06h-.277v-1.06c0-.15-.025-.289-.217-.289-.129 0-.267.077-.402.212v1.137H7.86v-1.06c0-.15-.025-.289-.216-.289-.133 0-.274.089-.403.216v1.133h-.277v-1.55h.163l.07.25c.145-.154.324-.28.537-.28.21 0 .302.114.362.268.145-.158.333-.268.534-.268M10.322 26.638c-.315.059-.52.123-.597.218-.042.047-.05.09-.05.158 0 .151.075.237.244.237.16 0 .302-.08.403-.153v-.46zm0-.246c0-.21-.066-.315-.296-.315-.157 0-.301.062-.45.136l-.1-.182c.163-.101.34-.175.572-.175.393 0 .55.21.55.554v1.026h-.16l-.072-.185a.712.712 0 0 1-.488.21c-.276 0-.483-.17-.483-.428 0-.17.066-.29.21-.377.142-.086.393-.147.717-.194v-.07zM11.06 25.887h.163l.07.255c.145-.16.33-.286.566-.286.342 0 .43.264.43.52v1.06h-.276v-1.06c0-.15-.038-.289-.246-.289-.147 0-.301.089-.43.222v1.127h-.277v-1.55M12.584 26.077v-.19h.242l.069-.444h.202v.444h.351v.19h-.351v.956c0 .144.028.221.176.221.06 0 .11-.012.179-.03l.041.188a.672.672 0 0 1-.255.049c-.286 0-.418-.136-.418-.413v-.97h-.236M14.69 26.555c-.01-.326-.119-.496-.342-.496-.202 0-.334.151-.356.496h.698zm-.299.69c.182 0 .299-.068.431-.151l.116.163a.8.8 0 0 1-.569.204c-.408 0-.67-.309-.67-.798 0-.477.252-.807.649-.807.408 0 .625.299.625.816v.065h-.98c.011.333.131.508.398.508z"/>
        <g transform="translate(0 2.425)">
            <mask id="d" fill="#fff">
                <use xlink:href="#c"/>
            </mask>
            <path fill="#FFF" d="M15.224 24.247c0-.398.179-.817.666-.817.202 0 .356.05.494.164l-.12.182a.605.605 0 0 0-.37-.126c-.33 0-.38.333-.38.597 0 .256.058.57.389.57.16 0 .27-.059.377-.149l.132.161a.7.7 0 0 1-.522.207c-.48 0-.666-.4-.666-.79M8.213 2.679a5.643 5.643 0 0 0-3.97 1.611 5.416 5.416 0 0 0-1.645 3.89c0 1.469.584 2.85 1.645 3.89a5.644 5.644 0 0 0 3.97 1.612c1.499 0 2.91-.573 3.97-1.612a5.422 5.422 0 0 0 0-7.78 5.643 5.643 0 0 0-3.97-1.611zm0 13.55C3.685 16.228 0 12.616 0 8.18 0 3.743 3.685.133 8.213.133c4.528 0 8.212 3.61 8.212 8.047 0 4.437-3.684 8.048-8.212 8.048z" mask="url(#d)"/>
        </g>
        <path fill="#FFF" d="M17.16 1.946h.64V1.32h-.64zM17.16.697h.64V.068h-.64zM15.358 2.554h.598v-.612h-.598zM14.172 3.73h.603v-.585h-.603zM15.956 3.145h.67v-.59h-.67zM13.572 3.145h.6v-.562h-.6zM15.358 3.73h.598v-.585h-.598zM16.526 1.319h.633V.697h-.633z"/>
        <path fill="#FFF" d="M15.358 1.942h1.168v-.623h-1.168zM14.775 3.145h.583V1.942h-.583zM14.775 4.321h-.603v-.59h-1v.425h-.536v.525h.598v.585h-.598V4.68h-.637v.917h-.602v.586h-.4v.587h-.438c-.494.72-1.73 2.96-2.104 3.873-1.347-1.837-2.393-2.566-3.217-2.829-.444-.131-.98.343-.241 1.089 1.694 1.827 2.228 3.34 2.743 4.546.273.636 1.495.735 1.74.087.522-1.37 1.279-2.908 2.175-4.171V8.71h.477v-.59h.504v-.684h.6v-.66h-.607v-.6h.607v.6h.595l-.002-.593h.476v-.717h.537v-.492h.516V3.73h-.583v.59z"/>
    </g>
</svg>
