<svg xmlns="http://www.w3.org/2000/svg" width="58" height="58" viewBox="0 0 58 58">
    <g fill="none" fill-rule="evenodd">
        <circle cx="29" cy="29" r="29" fill="#FFF"/>
        <circle cx="29" cy="29" r="25" stroke="#393"/>
        <circle cx="12.5" cy="12.5" r="10.5" fill="#FFF"/>
        <path fill="#393" d="M14.872 12.643l-1.21 1.21-2.224 2.224-.009-.009-.009.009-1.21-1.21-2.224-2.224 1.21-1.211 2.224 2.224.01.008 1.021-1.021 1.21-1.211 2.225-2.224 1.21 1.21-2.224 2.225zM12.5 4A8.5 8.5 0 0 0 4 12.5a8.5 8.5 0 0 0 8.5 8.5 8.5 8.5 0 0 0 8.5-8.5A8.5 8.5 0 0 0 12.5 4z"/>
    </g>
</svg>
