<?xml version="1.0" encoding="UTF-8" standalone="no"?>
<svg width="16px" height="16px" viewBox="0 0 16 16" version="1.1" xmlns="http://www.w3.org/2000/svg" xmlns:xlink="http://www.w3.org/1999/xlink">
    <!-- Generator: sketchtool 3.8.3 (29802) - http://www.bohemiancoding.com/sketch -->
    <title>40712AB2-5E42-4203-8270-461C3AAF71A0</title>
    <desc>Created with sketchtool.</desc>
    <defs></defs>
    <g id="Welcome" stroke="none" stroke-width="1" fill="none" fill-rule="evenodd">
        <g id="Extension-UI-Assets" transform="translate(-62.000000, -73.000000)" fill="#A0A0A0">
            <g id="main-UI" transform="translate(20.000000, 25.000000)">
                <path d="M50,61.76 C48,61.76 46.232,60.736 45.2,59.184 C45.224,57.592 48.4,56.72 50,56.72 C51.592,56.72 54.776,57.592 54.8,59.184 C53.768,60.736 52,61.76 50,61.76 M50,50.4 C51.328,50.4 52.4,51.472 52.4,52.8 C52.4,54.128 51.328,55.2 50,55.2 C48.672,55.2 47.6,54.128 47.6,52.8 C47.6,51.472 48.672,50.4 50,50.4 M50,48 C45.584,48 42,51.584 42,56 C42,60.416 45.584,64 50,64 C54.416,64 58,60.416 58,56 C58,51.584 54.416,48 50,48" id="ic_account"></path>
            </g>
        </g>
    </g>
</svg>