<svg xmlns="http://www.w3.org/2000/svg" xmlns:xlink="http://www.w3.org/1999/xlink" width="100" height="100" viewBox="0 0 100 100">
    <defs>
        <circle id="a" cx="50" cy="50" r="50"/>
        <path id="c" d="M83.33 66.176V.117H0v66.06h83.33z"/>
    </defs>
    <g fill="none" fill-rule="evenodd">
        <mask id="b" fill="#fff">
            <use xlink:href="#a"/>
        </mask>
        <use fill="#FFF" xlink:href="#a"/>
        <g mask="url(#b)">
            <g transform="translate(8.333 17.162)">
                <mask id="d" fill="#fff">
                    <use xlink:href="#c"/>
                </mask>
                <path fill="#0665A8" d="M48.789 66.176c18.134 0 34.541-14.68 34.541-32.814C83.33 13.502 66.923.117 48.789.117H33.245C15.112.117 0 13.933 0 33.362c0 18.135 15.112 32.814 33.245 32.814H48.79z" mask="url(#d)"/>
            </g>
            <path fill="#FFF" d="M41.579 19.87c-16.839 0-30.223 13.385-30.223 30.223 0 16.84 13.384 30.223 30.223 30.223 16.838 0 30.223-13.384 30.223-30.223 0-16.406-13.385-30.223-30.223-30.223M22.15 50.093c0-8.203 5.18-15.112 12.52-18.134v35.837c-7.34-2.16-12.52-9.5-12.52-17.703m26.337 18.134V32.391c7.34 2.59 12.52 9.931 12.52 18.134-.43 7.772-5.18 15.111-12.52 17.702"/>
        </g>
    </g>
</svg>
