<svg xmlns="http://www.w3.org/2000/svg" xmlns:xlink="http://www.w3.org/1999/xlink" width="40" height="40" viewBox="0 0 40 40">
    <defs>
        <circle id="a" cx="20" cy="20" r="20"/>
        <path id="c" d="M33.332 26.47V.047H0V26.47h33.332z"/>
    </defs>
    <g fill="none" fill-rule="evenodd">
        <mask id="b" fill="#fff">
            <use xlink:href="#a"/>
        </mask>
        <use fill="#FFF" xlink:href="#a"/>
        <g mask="url(#b)">
            <g transform="translate(3.333 6.865)">
                <mask id="d" fill="#fff">
                    <use xlink:href="#c"/>
                </mask>
                <path fill="#0665A8" d="M19.516 26.47c7.253 0 13.816-5.871 13.816-13.125 0-7.944-6.563-13.298-13.816-13.298h-6.218C6.045.047 0 5.573 0 13.345 0 20.599 6.045 26.47 13.298 26.47h6.218z" mask="url(#d)"/>
            </g>
            <path fill="#FFF" d="M16.632 7.948c-6.736 0-12.09 5.354-12.09 12.09 0 6.735 5.354 12.089 12.09 12.089 6.735 0 12.089-5.354 12.089-12.09 0-6.562-5.354-12.09-12.09-12.09M8.86 20.038c0-3.281 2.072-6.044 5.008-7.253v14.334c-2.936-.863-5.008-3.8-5.008-7.08m10.535 7.253V12.956c2.936 1.037 5.008 3.973 5.008 7.254-.172 3.109-2.072 6.045-5.008 7.08"/>
        </g>
    </g>
</svg>
