<?xml version="1.0" encoding="UTF-8" standalone="no"?>
<svg width="14px" height="16px" viewBox="0 0 14 16" version="1.1" xmlns="http://www.w3.org/2000/svg" xmlns:xlink="http://www.w3.org/1999/xlink">
    <!-- Generator: sketchtool 40.3 (33839) - http://www.bohemiancoding.com/sketch -->
    <title>3202C936-4942-4BE6-B08E-B810C423A5B7</title>
    <desc>Created with sketchtool.</desc>
    <defs></defs>
    <g id="Welcome" stroke="none" stroke-width="1" fill="none" fill-rule="evenodd">
        <g id="Extension-UI-Assets" transform="translate(-29.000000, -350.000000)" fill="#666666">
            <g id="main-UI" transform="translate(20.000000, 25.000000)">
                <path d="M13.4210526,339.545455 L21.5263158,339.545455 L21.5263158,329.363636 L13.4210526,329.363636 L13.4210526,339.545455 Z M21.5263158,327.909091 L13.4210526,327.909091 C12.6105263,327.909091 11.9473684,328.563636 11.9473684,329.363636 L11.9473684,339.545455 C11.9473684,340.345455 12.6105263,341 13.4210526,341 L21.5263158,341 C22.3368421,341 23,340.345455 23,339.545455 L23,329.363636 C23,328.563636 22.3368421,327.909091 21.5263158,327.909091 L21.5263158,327.909091 Z M19.3157895,325 L10.4736842,325 C9.66315789,325 9,325.654545 9,326.454545 L9,336.636364 L10.4736842,336.636364 L10.4736842,326.454545 L19.3157895,326.454545 L19.3157895,325 Z" id="ic_global_copy"></path>
            </g>
        </g>
    </g>
</svg>