<svg xmlns="http://www.w3.org/2000/svg" width="28" height="28" viewBox="0 0 28 28">
    <g fill="none" fill-rule="evenodd">
        <path d="M0 0h28v28H0z"/>
        <path fill="#242E39" d="M18.478 25.57a11.858 11.858 0 0 0 7.368-10.978C25.846 8.046 20.542 2.74 14 2.74S2.154 8.046 2.154 14.592a11.857 11.857 0 0 0 7.378 10.98 1.078 1.078 0 0 1-.794 2.004l-.001.002C3.613 25.496 0 20.467 0 14.592 0 6.855 6.268.583 14 .583s14 6.272 14 14.01c0 5.863-3.6 10.884-8.708 12.973a1.077 1.077 0 1 1-.814-1.995zm-1.418-3.568a8.085 8.085 0 0 0 5.017-7.482c0-4.464-3.616-8.082-8.077-8.082-4.46 0-8.077 3.618-8.077 8.082a8.085 8.085 0 0 0 5.047 7.493 1.078 1.078 0 0 1-.797 2.002v.002a10.24 10.24 0 0 1-6.404-9.497C3.77 8.866 8.35 4.282 14 4.282c5.65 0 10.23 4.584 10.23 10.238A10.24 10.24 0 0 1 17.868 24l-.016.006a1.077 1.077 0 1 1-.791-2.004zm-8.373-6.077a.452.452 0 0 1-.091-.652l.38-.472-.546-.144a.455.455 0 1 1 .264-.87l.565.195-.04-.569a.472.472 0 0 1 .47-.504.467.467 0 0 1 .467.504l-.045.569.574-.196a.456.456 0 0 1 .584.3.454.454 0 0 1-.32.57l-.555.145.38.472a.452.452 0 0 1-.091.652.46.46 0 0 1-.653-.126l-.345-.537-.345.537a.46.46 0 0 1-.653.126zm4.303 0a.452.452 0 0 1-.092-.652l.38-.472-.546-.144a.455.455 0 1 1 .264-.87l.566.195-.04-.569a.472.472 0 0 1 .47-.504.467.467 0 0 1 .466.504l-.045.569.574-.196a.456.456 0 0 1 .584.3.454.454 0 0 1-.32.57l-.554.145.38.472a.452.452 0 0 1-.092.652.46.46 0 0 1-.652-.126l-.346-.537-.345.537a.46.46 0 0 1-.652.126zm4.307 0a.452.452 0 0 1-.091-.652l.38-.472-.546-.144a.455.455 0 1 1 .264-.87l.565.195-.04-.569a.472.472 0 0 1 .47-.504.467.467 0 0 1 .467.504l-.045.569.574-.196a.456.456 0 0 1 .584.3.454.454 0 0 1-.32.57l-.555.145.38.472a.452.452 0 0 1-.091.652.46.46 0 0 1-.653-.126l-.345-.537-.345.537a.46.46 0 0 1-.653.126z"/>
    </g>
</svg>
