<svg xmlns="http://www.w3.org/2000/svg" width="100" height="100" viewBox="0 0 100 100">
    <g fill="none" fill-rule="evenodd">
        <path d="M0-1h100V99H0z"/>
        <path fill="#242E39" d="M65.993 90.323v-.001C81.43 84.01 92.307 68.834 92.307 51.116 92.308 27.735 73.366 8.78 50 8.78S7.692 27.735 7.692 51.116c0 17.673 10.822 32.816 26.197 39.157a3.85 3.85 0 0 1-2.683 7.213l-.003.006C12.904 90.06 0 72.095 0 51.116 0 23.484 22.386 1.083 50 1.083s50 22.4 50 50.033c0 20.94-12.855 38.875-31.1 46.334v-.001a3.845 3.845 0 0 1-5.055-2.107 3.85 3.85 0 0 1 2.148-5.02zm-5.066-12.744c10.514-4.31 17.92-14.65 17.92-26.722 0-15.942-12.916-28.865-28.847-28.865-15.931 0-28.846 12.923-28.846 28.865 0 12.067 7.4 22.404 17.906 26.716l.118.046a3.85 3.85 0 0 1-2.846 7.15l-.002.005c-13.408-5.416-22.868-18.561-22.868-33.917 0-20.193 16.358-36.562 36.538-36.562 20.18 0 36.538 16.369 36.538 36.562 0 15.302-9.394 28.409-22.727 33.86v-.003a3.845 3.845 0 0 1-5.062-2.104 3.85 3.85 0 0 1 2.178-5.031zm-28.992-21.06l-1.81-1.28a.577.577 0 0 1-.116-.833l2.047-2.547-3-.789a.577.577 0 0 1-.406-.725l.632-2.081a.577.577 0 0 1 .74-.378l3.047 1.049-.226-3.215a.577.577 0 0 1 .575-.617h2.37a.577.577 0 0 1 .576.622l-.255 3.21 3.083-1.051a.577.577 0 0 1 .738.378l.632 2.081a.577.577 0 0 1-.407.726l-3.033.79 2.048 2.547a.577.577 0 0 1-.117.833l-1.81 1.28a.577.577 0 0 1-.818-.159l-1.836-2.854-1.835 2.854a.577.577 0 0 1-.819.16zm15.366 0l-1.81-1.28a.577.577 0 0 1-.117-.833l2.048-2.547-3.001-.789a.577.577 0 0 1-.406-.725l.632-2.081a.577.577 0 0 1 .74-.378l3.048 1.049-.227-3.215a.577.577 0 0 1 .576-.617h2.37a.577.577 0 0 1 .575.622l-.254 3.21 3.082-1.051a.577.577 0 0 1 .739.378l.631 2.081a.577.577 0 0 1-.406.726l-3.033.79 2.047 2.547a.577.577 0 0 1-.116.833l-1.81 1.28a.577.577 0 0 1-.819-.159l-1.835-2.854-1.836 2.854a.577.577 0 0 1-.818.16zm15.384 0l-1.81-1.28a.577.577 0 0 1-.116-.833l2.047-2.547-3-.789a.577.577 0 0 1-.406-.725l.632-2.081a.577.577 0 0 1 .74-.378l3.047 1.049-.226-3.215a.577.577 0 0 1 .575-.617h2.37a.577.577 0 0 1 .576.622l-.255 3.21 3.083-1.051a.577.577 0 0 1 .738.378l.632 2.081a.577.577 0 0 1-.407.726l-3.033.79 2.048 2.547a.577.577 0 0 1-.117.833l-1.81 1.28a.577.577 0 0 1-.818-.159l-1.836-2.854-1.835 2.854a.577.577 0 0 1-.819.16z"/>
        <g transform="translate(50 59)">
            <circle cx="20" cy="20" r="20" fill="#0089C6"/>
            <path fill="#FFF" d="M22.546 17.72h-5.092v-2.528c0-1.432 1.141-2.595 2.544-2.595s2.548 1.163 2.548 2.595v2.528zm4.725 8.513v-6.567c0-1.071-.864-1.948-1.914-1.948h-.26V15.19c0-2.863-2.288-5.19-5.099-5.19-2.811 0-5.097 2.33-5.097 5.19v2.528h-.258c-1.055 0-1.916.877-1.916 1.948v6.567c0 1.074.86 1.949 1.916 1.949h10.714c1.053 0 1.916-.875 1.916-1.949h-.002z"/>
        </g>
    </g>
</svg>
