<svg width="56" height="56" viewBox="0 0 56 56" xmlns="http://www.w3.org/2000/svg"><title>87C9F3F1-84DD-4CB9-A83E-CE3C801F4D8C</title><path d="M9.333 43.556c0-6.223 12.445-9.645 18.667-9.645 6.222 0 18.667 3.422 18.667 9.645v3.11H9.333v-3.11zm28-24.89A9.32 9.32 0 0 1 28 28a9.32 9.32 0 0 1-9.333-9.333A9.32 9.32 0 0 1 28 9.333a9.32 9.32 0 0 1 9.333 9.334zM0 6.223v43.556A6.22 6.22 0 0 0 6.222 56h43.556C53.2 56 56 53.2 56 49.778V6.222C56 2.8 53.2 0 49.778 0H6.222A6.22 6.22 0 0 0 0 6.222z" fill="#36B2DD" fill-rule="evenodd"/></svg>