<?xml version="1.0" encoding="UTF-8" standalone="no"?>
<svg width="14px" height="14px" viewBox="0 0 14 14" version="1.1" xmlns="http://www.w3.org/2000/svg" xmlns:xlink="http://www.w3.org/1999/xlink">
    <!-- Generator: sketchtool 3.6.1 (26313) - http://www.bohemiancoding.com/sketch -->
    <title>59324CF9-A77F-4F16-869F-AD3144F54C09</title>
    <desc>Created with sketchtool.</desc>
    <defs></defs>
    <g id="Welcome" stroke="none" stroke-width="1" fill="none" fill-rule="evenodd">
        <g id="Extension-UI-Assets" transform="translate(-23.000000, -104.000000)" fill="#666666">
            <g id="main-UI" transform="translate(20.000000, 25.000000)">
                <path d="M10.0015895,88.45 C8.61268959,88.45 7.4828591,87.351 7.4828591,86 C7.4828591,84.649 8.61268959,83.55 10.0015895,83.55 C11.3904894,83.55 12.5203199,84.649 12.5203199,86 C12.5203199,87.351 11.3904894,88.45 10.0015895,88.45 L10.0015895,88.45 Z M15.3484943,86.686 C15.3772798,86.462 15.3988689,86.238 15.3988689,86 C15.3988689,85.762 15.3772798,85.538 15.3484943,85.314 L16.8669289,84.159 C17.00366,84.054 17.0396419,83.865 16.9532854,83.711 L15.5140109,81.289 C15.4276544,81.135 15.2333523,81.079 15.0750321,81.135 L13.2831354,81.835 C12.908924,81.555 12.5059271,81.324 12.0669484,81.149 L11.7934863,79.294 C11.7718971,79.126 11.6207733,79 11.440864,79 L8.56231498,79 C8.38240567,79 8.23128185,79.126 8.20969273,79.294 L7.93623057,81.149 C7.49725185,81.324 7.09425498,81.562 6.72004361,81.835 L4.92814684,81.135 C4.76263027,81.072 4.57552459,81.135 4.48916812,81.289 L3.04989361,83.711 C2.95634076,83.865 2.999519,84.054 3.13625008,84.159 L4.65468469,85.314 C4.6258992,85.538 4.60431008,85.769 4.60431008,86 C4.60431008,86.231 4.6258992,86.462 4.65468469,86.686 L3.13625008,87.841 C2.999519,87.946 2.96353713,88.135 3.04989361,88.289 L4.48916812,90.711 C4.57552459,90.865 4.76982665,90.921 4.92814684,90.865 L6.72004361,90.165 C7.09425498,90.445 7.49725185,90.676 7.93623057,90.851 L8.20969273,92.706 C8.23128185,92.874 8.38240567,93 8.56231498,93 L11.440864,93 C11.6207733,93 11.7718971,92.874 11.7934863,92.706 L12.0669484,90.851 C12.5059271,90.676 12.908924,90.438 13.2831354,90.165 L15.0750321,90.865 C15.2405487,90.928 15.4276544,90.865 15.5140109,90.711 L16.9532854,88.289 C17.0396419,88.135 17.00366,87.946 16.8669289,87.841 L15.3484943,86.686 Z" id="ic_mainui_settings"></path>
            </g>
        </g>
    </g>
</svg>