<svg xmlns="http://www.w3.org/2000/svg" width="146" height="146" viewBox="0 0 146 146">
    <g fill="none" fill-rule="evenodd">
        <path d="M0-.433h146v146H0z"/>
        <path fill="#004475" d="M96.35 132.858l-.001-.001c22.539-9.216 38.42-31.373 38.42-57.241 0-34.137-27.655-61.81-61.769-61.81S11.23 41.48 11.23 75.616c0 25.802 15.8 47.911 38.247 57.17a5.62 5.62 0 0 1 3.33 7.4 5.614 5.614 0 0 1-7.247 3.13l-.003.01C18.84 132.471 0 106.245 0 75.615 0 35.273 32.683 2.568 73 2.568s73 32.705 73 73.048c0 30.572-18.769 56.757-45.406 67.648v-.002l-.07.029a5.614 5.614 0 0 1-7.31-3.105 5.62 5.62 0 0 1 3.135-7.328zm-7.396-18.607c15.35-6.291 26.161-21.389 26.161-39.014 0-23.274-18.855-42.142-42.115-42.142S30.885 51.963 30.885 75.237c0 17.618 10.803 32.71 26.142 39.007a5.62 5.62 0 0 1 3.276 7.382 5.614 5.614 0 0 1-7.259 3.124l-.003.007c-19.574-7.908-33.387-27.1-33.387-49.52 0-29.48 23.884-53.38 53.346-53.38 29.462 0 53.346 23.9 53.346 53.38 0 22.342-13.716 41.478-33.182 49.436l-.001-.004a5.614 5.614 0 0 1-7.39-3.072 5.62 5.62 0 0 1 3.181-7.346zM46.852 83.665l-3.1-2.193a.577.577 0 0 1-.116-.832l3.166-3.94-4.648-1.221a.577.577 0 0 1-.405-.726l1.082-3.565a.577.577 0 0 1 .74-.378l4.71 1.621-.35-4.977a.577.577 0 0 1 .575-.617h4.033a.577.577 0 0 1 .575.622l-.395 4.972 4.761-1.623a.577.577 0 0 1 .738.379l1.083 3.565a.577.577 0 0 1-.407.726L54.2 76.701l3.166 3.939a.577.577 0 0 1-.117.832l-3.1 2.193a.577.577 0 0 1-.818-.16l-2.83-4.4-2.83 4.4a.577.577 0 0 1-.818.16zm22.434 0l-3.1-2.193a.577.577 0 0 1-.116-.832l3.166-3.94-4.648-1.221a.577.577 0 0 1-.405-.726l1.082-3.565a.577.577 0 0 1 .74-.378l4.71 1.621-.351-4.977a.577.577 0 0 1 .575-.617h4.033a.577.577 0 0 1 .575.622l-.394 4.972 4.76-1.623a.577.577 0 0 1 .739.379l1.082 3.565a.577.577 0 0 1-.406.726l-4.696 1.223 3.166 3.939a.577.577 0 0 1-.116.832l-3.1 2.193a.577.577 0 0 1-.818-.16l-2.83-4.4-2.83 4.4a.577.577 0 0 1-.818.16zm22.461 0l-3.1-2.193a.577.577 0 0 1-.116-.832l3.166-3.94-4.648-1.221a.577.577 0 0 1-.405-.726l1.082-3.565a.577.577 0 0 1 .74-.378l4.71 1.621-.35-4.977a.577.577 0 0 1 .575-.617h4.033a.577.577 0 0 1 .575.622l-.395 4.972 4.761-1.623a.577.577 0 0 1 .738.379l1.083 3.565a.577.577 0 0 1-.407.726l-4.695 1.223 3.166 3.939a.577.577 0 0 1-.117.832l-3.1 2.193a.577.577 0 0 1-.818-.16l-2.83-4.4-2.83 4.4a.577.577 0 0 1-.818.16z"/>
    </g>
</svg>
