<svg xmlns="http://www.w3.org/2000/svg" width="80" height="80" viewBox="0 0 80 80">
    <g fill="#CECECE" fill-rule="evenodd">
        <path d="M29.731 50.314c-11.39 0-20.583-9.193-20.583-20.583 0-11.39 9.194-20.583 20.583-20.583 11.39 0 20.583 9.194 20.583 20.583 0 11.39-9.193 20.583-20.583 20.583zm27.445 0h-3.614l-1.28-1.235c4.482-5.214 7.18-11.984 7.18-19.348C59.463 13.311 46.153 0 29.733 0 13.31 0 0 13.31 0 29.731s13.31 29.732 29.731 29.732c7.364 0 14.134-2.7 19.348-7.182l1.235 1.281v3.614L73.184 80 80 73.185l-22.824-22.87z"/>
        <path d="M29.667 19A6.665 6.665 0 0 0 23 25.667h3.333c0-1.834 1.5-3.334 3.334-3.334 1.833 0 3.333 1.5 3.333 3.334C33 29 28 28.583 28 34h3.333c0-3.75 5-4.167 5-8.333A6.665 6.665 0 0 0 29.667 19zM28 39h3.333v-3.333H28V39z"/>
    </g>
</svg>
