<svg width="10" height="12" viewBox="0 0 10 12" xmlns="http://www.w3.org/2000/svg"><title>5A811E95-73B4-47D0-88F7-4AFFDAFE335A</title><path d="M6.75 5.095h-3.5V3.427c0-.946.784-1.713 1.749-1.713.964 0 1.751.767 1.751 1.713v1.668zM10 10.715V6.38c0-.707-.594-1.286-1.316-1.286h-.178V3.426C8.505 1.536 6.93 0 4.999 0 3.066 0 1.494 1.537 1.494 3.426v1.668h-.177C.591 5.094 0 5.673 0 6.38v4.334C0 11.423.591 12 1.317 12h7.366C9.407 12 10 11.423 10 10.714h-.001z" fill="#A0A0A0" fill-rule="evenodd"/></svg>