<?xml version="1.0" encoding="UTF-8" standalone="no"?>
<svg width="62px" height="62px" viewBox="0 0 62 62" version="1.1" xmlns="http://www.w3.org/2000/svg" xmlns:xlink="http://www.w3.org/1999/xlink">
    <!-- Generator: sketchtool 3.8.1 (29687) - http://www.bohemiancoding.com/sketch -->
    <title>F81DE46E-7FCD-45BA-8622-A8A1F4A6DC60</title>
    <desc>Created with sketchtool.</desc>
    <defs></defs>
    <g id="Welcome" stroke="none" stroke-width="1" fill="none" fill-rule="evenodd">
        <g id="Extension-UI-Assets" transform="translate(-39.000000, -776.000000)" fill="#000000">
            <g id="Sign-In-Specific" transform="translate(31.000000, 646.000000)">
                <g id="ic_sign-in_grey-logo" transform="translate(8.000000, 130.000000)">
                    <path d="M31.0000418,59.0778458 C15.4942641,59.0778458 2.92223791,46.5104209 2.92223791,31.0004601 C2.92223791,15.4939503 15.4942641,2.92161046 31.0000418,2.92161046 C46.5075974,2.92161046 59.0779503,15.4939503 59.0779503,31.0004601 C59.0779503,46.5104209 46.5075974,59.0778458 31.0000418,59.0778458 M31.0000418,0.673244444 C14.2512837,0.673244444 0.673244444,14.252434 0.673244444,31.0004601 C0.673244444,47.7479634 14.2512837,61.3268392 31.0000418,61.3268392 C47.7478588,61.3268392 61.3268392,47.7479634 61.3268392,31.0004601 C61.3268392,14.252434 47.7478588,0.673244444 31.0000418,0.673244444 M48.6910222,31.0004601 C48.6910222,21.2307346 40.769349,13.3088523 31.0000418,13.3088523 C21.2296889,13.3088523 13.3089569,21.2307346 13.3089569,31.0004601 C13.3089569,37.512983 16.8376366,43.1873359 22.0777935,46.2582902 L24.361715,39.6155712 C21.7816366,37.6251922 20.113349,34.5110484 20.113349,31.0004601 C20.113349,24.9886431 24.9881203,20.1125124 31.0000418,20.1125124 C37.0136366,20.1125124 41.8875712,24.9886431 41.8875712,31.0004601 C41.8875712,34.5110484 40.2192837,37.6260288 37.6382641,39.6165124 L39.9222902,46.2582902 C45.1623425,43.1873359 48.6910222,37.5121464 48.6910222,31.0004601 M31.0000418,4.59397647 C16.4159895,4.59397647 4.59219869,16.4174536 4.59219869,31.0004601 C4.59219869,41.3422118 10.5423163,50.2912314 19.2023948,54.6248261 L21.3759895,48.3025255 C15.305715,44.9193098 11.1955974,38.4427608 11.1955974,31.0004601 C11.1955974,20.0627346 20.0630484,11.1958065 31.0000418,11.1958065 C41.9388131,11.1958065 50.8044863,20.0627346 50.8044863,31.0004601 C50.8044863,38.4435974 46.6942641,44.9193098 40.6249307,48.3025255 L42.7976889,54.6240941 C51.4569307,50.2895582 57.4068392,41.3422118 57.4068392,31.0004601 C57.4068392,16.4174536 45.5832575,4.59397647 31.0000418,4.59397647" id="Fill-5"></path>
                </g>
            </g>
        </g>
    </g>
</svg>