<?xml version="1.0" encoding="UTF-8" standalone="no"?>
<svg width="60px" height="60px" viewBox="0 0 60 60" version="1.1" xmlns="http://www.w3.org/2000/svg" xmlns:xlink="http://www.w3.org/1999/xlink">
    <!-- Generator: sketchtool 3.8.1 (29687) - http://www.bohemiancoding.com/sketch -->
    <title>914C1B23-F4C6-4E59-8359-C118D1EAF1BC</title>
    <desc>Created with sketchtool.</desc>
    <defs></defs>
    <g id="Welcome" stroke="none" stroke-width="1" fill="none" fill-rule="evenodd">
        <g id="Extension-UI-Assets" transform="translate(-39.000000, -694.000000)">
            <g id="Sign-In-Specific" transform="translate(31.000000, 646.000000)">
                <g id="ic_sign-in_logo" transform="translate(8.000000, 48.000000)">
                    <path d="M55.7929935,30.0314771 C55.7929935,44.2769673 44.2447582,55.825268 29.9992026,55.825268 C15.7537124,55.825268 4.20547712,44.2769673 4.20547712,30.0314771 C4.20547712,15.7859869 15.7537124,4.23768627 29.9992026,4.23768627 C44.2447582,4.23768627 55.7929935,15.7859869 55.7929935,30.0314771" id="Fill-1" fill="#FFFFFF"></path>
                    <path d="M30.0000327,52.1647124 C17.739902,52.1647124 7.80120915,42.2259542 7.80120915,29.9659542 C7.80120915,17.7061503 17.739902,7.76739216 30.0000327,7.76739216 C42.2600327,7.76739216 52.1988562,17.7061503 52.1988562,29.9659542 C52.1988562,42.2259542 42.2600327,52.1647124 30.0000327,52.1647124 M30.0000327,0.00719607843 C13.4355229,0.00719607843 0.00722222222,13.4354967 0.00722222222,30.0000065 C0.00722222222,46.5641895 13.4355229,59.992817 30.0000327,59.992817 C46.5645425,59.992817 59.9927778,46.5641895 59.9927778,30.0000065 C59.9927778,13.4354967 46.5645425,0.00719607843 30.0000327,0.00719607843" id="Fill-3" fill="#FFC20D"></path>
                    <path d="M30.0000261,47.5486536 C20.308915,47.5486536 12.4513987,39.6940131 12.4513987,30.0002876 C12.4513987,20.308719 20.308915,12.4510065 30.0000261,12.4510065 C39.6922484,12.4510065 47.548719,20.308719 47.548719,30.0002876 C47.548719,39.6940131 39.6922484,47.5486536 30.0000261,47.5486536 M30.0000261,11.0457778 C19.5320523,11.0457778 11.0457778,19.5327712 11.0457778,30.0002876 C11.0457778,40.4674771 19.5320523,48.9542745 30.0000261,48.9542745 C40.4674118,48.9542745 48.9542745,40.4674771 48.9542745,30.0002876 C48.9542745,19.5327712 40.4674118,11.0457778 30.0000261,11.0457778 M41.0568889,30.0002876 C41.0568889,23.8942092 36.1058431,18.9430327 30.0000261,18.9430327 C23.8935556,18.9430327 18.943098,23.8942092 18.943098,30.0002876 C18.943098,34.0706144 21.1485229,37.617085 24.4236209,39.5364314 L25.8510719,35.384732 C24.2385229,34.1407451 23.1958431,32.1944052 23.1958431,30.0002876 C23.1958431,26.242902 26.2425752,23.1953203 30.0000261,23.1953203 C33.7585229,23.1953203 36.804732,26.242902 36.804732,30.0002876 C36.804732,32.1944052 35.7620523,34.141268 34.148915,35.3853203 L35.5764314,39.5364314 C38.8514641,37.617085 41.0568889,34.0700915 41.0568889,30.0002876 M30.0000261,13.4962353 C20.8849935,13.4962353 13.4951242,20.8859085 13.4951242,30.0002876 C13.4951242,36.4638824 17.2139477,42.0570196 22.6264967,44.7655163 L23.9849935,40.8140784 C20.1910719,38.6995686 17.6222484,34.6517255 17.6222484,30.0002876 C17.6222484,23.1642092 23.1644052,17.6223791 30.0000261,17.6223791 C36.8367582,17.6223791 42.3778039,23.1642092 42.3778039,30.0002876 C42.3778039,34.6522484 39.808915,38.6995686 36.0155817,40.8140784 L37.3735556,44.7650588 C42.7855817,42.0559739 46.5042745,36.4638824 46.5042745,30.0002876 C46.5042745,20.8859085 39.1145359,13.4962353 30.0000261,13.4962353" id="Fill-5" fill="#231F1F"></path>
                </g>
            </g>
        </g>
    </g>
</svg>