<svg width="20" height="20" viewBox="0 0 20 20" xmlns="http://www.w3.org/2000/svg">
    <title>475BE26E-478E-45F6-BF0C-248CE552AA17</title><path d="M3.333 15.556c0-2.223 4.445-3.445 6.667-3.445 2.222 0 6.667 1.222 6.667 3.445v1.11H3.333v-1.11zm10-8.89A3.329 3.329 0 0 1 10 10a3.329 3.329 0 0 1-3.333-3.333A3.329 3.329 0 0 1 10 3.333a3.329 3.329 0 0 1 3.333 3.334zM0 2.223v15.556C0 19 .989 20 2.222 20h15.556C19 20 20 19 20 17.778V2.222C20 1 19 0 17.778 0H2.222C.99 0 0 1 0 2.222z" fill="#36B2DD" fill-rule="evenodd"/></svg>