<?xml version="1.0" encoding="UTF-8" standalone="no"?>
<svg width="32px" height="8px" viewBox="0 0 32 8" version="1.1" xmlns="http://www.w3.org/2000/svg" xmlns:xlink="http://www.w3.org/1999/xlink">
    <!-- Generator: sketchtool 3.6.1 (26313) - http://www.bohemiancoding.com/sketch -->
    <title>E65090A5-1108-4BCF-B378-AE05A738CFF3</title>
    <desc>Created with sketchtool.</desc>
    <defs></defs>
    <g id="Welcome" stroke="none" stroke-width="1" fill="none" fill-rule="evenodd">
        <g id="Extension-UI-Assets" transform="translate(-21.000000, -184.000000)" fill="#00547D">
            <g id="main-UI" transform="translate(20.000000, 25.000000)">
                <path d="M17,159 C14.8,159 13,160.8 13,163 C13,165.2 14.8,167 17,167 C19.2,167 21,165.2 21,163 C21,160.8 19.2,159 17,159 M29,159 C26.8,159 25,160.8 25,163 C25,165.2 26.8,167 29,167 C31.2,167 33,165.2 33,163 C33,160.8 31.2,159 29,159 M5,159 C2.8,159 1,160.8 1,163 C1,165.2 2.8,167 5,167 C7.2,167 9,165.2 9,163 C9,160.8 7.2,159 5,159" id="icon_global_menu_down"></path>
            </g>
        </g>
    </g>
</svg>