<?xml version="1.0" encoding="UTF-8" standalone="no"?>
<svg width="32px" height="8px" viewBox="0 0 32 8" version="1.1" xmlns="http://www.w3.org/2000/svg" xmlns:xlink="http://www.w3.org/1999/xlink">
    <!-- Generator: sketchtool 3.6.1 (26313) - http://www.bohemiancoding.com/sketch -->
    <title>AACD1F7B-A097-48C7-BD0D-C4BCBC500703</title>
    <desc>Created with sketchtool.</desc>
    <defs></defs>
    <g id="Welcome" stroke="none" stroke-width="1" fill="none" fill-rule="evenodd">
        <g id="Extension-UI-Assets" transform="translate(-21.000000, -169.000000)" fill="#CACACA">
            <g id="main-UI" transform="translate(20.000000, 25.000000)">
                <path d="M17,144 C14.8,144 13,145.8 13,148 C13,150.2 14.8,152 17,152 C19.2,152 21,150.2 21,148 C21,145.8 19.2,144 17,144 M29,144 C26.8,144 25,145.8 25,148 C25,150.2 26.8,152 29,152 C31.2,152 33,150.2 33,148 C33,145.8 31.2,144 29,144 M5,144 C2.8,144 1,145.8 1,148 C1,150.2 2.8,152 5,152 C7.2,152 9,150.2 9,148 C9,145.8 7.2,144 5,144" id="icon_global_menu_up"></path>
            </g>
        </g>
    </g>
</svg>