<svg xmlns="http://www.w3.org/2000/svg" width="98px" height="38px" viewBox="0 0 250 77">
    <g fill="none" fill-rule="evenodd">
        <g fill="#000">
            <path d="M248.943 19.078l-.566 2.077-.596-2.077h-.928v2.846h.589v-2.176l.627 2.176h.554l.639-2.176v2.176h.607v-2.846h-.926zm-4.844 0v.466h.776v2.38h.618v-2.38h.767v-.466h-2.161zM201.156 40.787a6.47 6.47 0 0 1-2.334 2.225c-.975.552-2.186.831-3.605.831-1.417 0-2.622-.279-3.578-.834a6.522 6.522 0 0 1-2.302-2.222c-.568-.91-.973-1.952-1.207-3.095a17.36 17.36 0 0 1-.35-3.48c0-1.182.119-2.363.35-3.508.234-1.162.64-2.206 1.209-3.1a6.9 6.9 0 0 1 2.296-2.218c.959-.573 2.164-.863 3.582-.863 1.419 0 2.633.29 3.61.862a6.808 6.808 0 0 1 2.328 2.22c.568.895.973 1.938 1.209 3.099.231 1.145.349 2.325.349 3.508a17.35 17.35 0 0 1-.35 3.48 9.457 9.457 0 0 1-1.207 3.095zm.25-20.627c-1.836-.717-3.919-1.082-6.189-1.082s-4.34.363-6.158 1.082c-1.816.716-3.392 1.74-4.686 3.04-1.295 1.302-2.308 2.904-3.011 4.757-.706 1.861-1.063 3.965-1.063 6.255s.357 4.383 1.063 6.226c.703 1.835 1.716 3.427 3.011 4.728 1.294 1.303 2.87 2.315 4.683 3.012 1.819.698 3.892 1.053 6.161 1.053 2.27 0 4.354-.355 6.192-1.053 1.831-.696 3.415-1.709 4.71-3.012 1.294-1.302 2.308-2.893 3.011-4.728.706-1.844 1.065-3.939 1.065-6.226s-.359-4.391-1.065-6.255c-.703-1.852-1.717-3.453-3.011-4.756-1.295-1.302-2.879-2.325-4.713-3.041zM238.556 22.267c-.763-.989-1.824-1.775-3.156-2.336-1.343-.565-3.097-.853-5.212-.853-1.654 0-3.298.381-4.886 1.13-1.571.742-3.24 1.949-4.23 3.585l-.089.148c-.047.075-.105.111-.178.111-.072 0-.107-.036-.107-.11V19.87h-7.085v28.626h7.485v-15.02c0-3.03.518-5.252 1.542-6.598 1.048-1.375 2.742-2.072 5.04-2.072 2.041 0 3.491.647 4.308 1.921.788 1.233 1.188 3.103 1.188 5.561v16.208h7.483V30.82c0-1.776-.16-3.42-.478-4.884-.312-1.438-.86-2.673-1.625-3.668M99.97 36.625L82.38 8.808h-8.074v39.765h7.426V20.626l.593.92 16.94 27.027h8.133V8.808h-7.426l-.002 27.817M131.673 40.787a6.488 6.488 0 0 1-2.333 2.225c-.976.552-2.19.831-3.605.831-1.419 0-2.622-.279-3.578-.834a6.526 6.526 0 0 1-2.303-2.222 9.369 9.369 0 0 1-1.208-3.095 17.36 17.36 0 0 1-.349-3.48c0-1.182.118-2.363.35-3.508.232-1.161.639-2.204 1.208-3.1a6.89 6.89 0 0 1 2.298-2.218c.957-.573 2.163-.863 3.582-.863 1.417 0 2.631.29 3.608.862a6.792 6.792 0 0 1 2.327 2.22c.57.895.976 1.938 1.21 3.099.232 1.145.35 2.325.35 3.508a17.35 17.35 0 0 1-.35 3.48 9.428 9.428 0 0 1-1.207 3.095zm.25-20.627c-1.836-.717-3.919-1.082-6.188-1.082-2.27 0-4.342.363-6.16 1.082-1.814.716-3.391 1.74-4.684 3.04-1.295 1.302-2.31 2.904-3.011 4.757-.708 1.861-1.065 3.965-1.065 6.255s.357 4.383 1.063 6.226c.703 1.835 1.718 3.427 3.013 4.728 1.293 1.303 2.87 2.315 4.682 3.012 1.818.698 3.892 1.053 6.162 1.053s4.352-.355 6.19-1.053c1.83-.696 3.415-1.709 4.712-3.012 1.294-1.302 2.308-2.894 3.01-4.728.707-1.844 1.064-3.937 1.064-6.226 0-2.288-.357-4.392-1.065-6.255-.7-1.852-1.715-3.453-3.01-4.756-1.296-1.303-2.882-2.325-4.713-3.041zM172.728 11.276l-7.483-.072-.08 8.294h-1.947s-3.56-.137-6.653 1.002c-1.897.698-3.487 1.92-4.507 3.77a8.93 8.93 0 0 0-.534 1.165c-.023.09-.081.134-.173.134-.09 0-.135-.044-.137-.134v-5.427h-7.083v28.625h7.484V35.762c0-1.338.135-2.598.407-3.743a8.754 8.754 0 0 1 .758-2.046c1.353-2.165 4.284-4.326 10.6-4.389h1.725l-.162 16.696c-.014 1.414.213 2.567.672 3.426a4.963 4.963 0 0 0 1.89 1.99c.811.476 1.769.806 2.848.98 1.098.177 2.281.272 3.514.284.771.01 1.593-.004 2.441-.035a19.217 19.217 0 0 0 1.987-.163l.055-5.595c-.28.043-.57.074-.863.099-.425.034-.88.05-1.341.044-1.467-.013-2.43-.272-2.948-.795-.515-.521-.76-1.48-.745-2.936l.137-13.995h5.76v-6.086h-5.702l.08-8.222"/>
        </g>
        <path fill="#FDBB30" d="M32.667 20.42a22.232 22.232 0 0 0-15.792 6.525c-4.217 4.21-6.543 9.805-6.543 15.75 0 5.95 2.326 11.547 6.547 15.76a22.227 22.227 0 0 0 15.788 6.522 22.233 22.233 0 0 0 15.795-6.528c4.213-4.207 6.537-9.803 6.537-15.753 0-5.946-2.324-11.54-6.537-15.753a22.254 22.254 0 0 0-15.795-6.522zm0 54.867C14.658 75.285.002 60.664 0 42.696.002 24.73 14.658 10.112 32.667 10.11c18.008.002 32.664 14.621 32.664 32.586 0 17.968-14.656 32.59-32.664 32.591zM68.25 7.632V5.094h2.548v2.538H68.25zm0-5.057V.029h2.548v2.546H68.25zm-7.165 7.52v-2.48h2.38v2.48h-2.38z"/>
        <path fill="#000" d="M56.368 14.86v-2.371h2.4v2.37h-2.4zm7.097-2.373v-2.39h2.666v2.39h-2.666zm-9.482 0v-2.274h2.387v2.274h-2.387zm7.102 2.373v-2.371h2.38v2.37h-2.38zm4.646-9.766v-2.52h2.519v2.52h-2.52zm-4.646 2.52v-2.52h4.646v2.52h-4.646zm-2.317 4.873V7.614h2.315v4.873h-2.315zm0 2.373h2.317v5.036H59.03v1.997h-2.129v2.9h-1.899l.008 2.404h-2.363V24.77H50.23v2.427h2.418v2.67h-2.39v2.77h-2.001v2.39h-1.903v2.652c-3.56 5.116-6.569 11.344-8.643 16.891-.98 2.62-5.838 2.222-6.922-.354-2.05-4.888-4.173-11.01-10.915-18.406-2.936-3.022-.807-4.942.963-4.411 3.276 1.066 7.435 4.018 12.79 11.456 1.49-3.7 6.406-12.77 8.37-15.68h1.746v-2.382h1.587v-2.37h2.397v-3.714h2.53v2.367h2.383V18.71h-2.383v-2.126h2.134V14.86h3.977v2.39h2.4v-2.39z"/>
        <g>
            <path fill="#000" d="M103.283 71.235h8.637v3.268H99.056V56.768h4.227zM113.737 74.503h3.916V60.568h-3.916zM113.737 58.638h3.916v-3.34h-3.916zM121.802 74.503V63.61h-2.153v-3.04h2.153v-.66c0-1.748.233-2.66.83-3.242.596-.583 1.27-.862 2.8-.862h3.269v2.94h-1.92c-.518 0-.674.05-.83.177-.13.152-.181.43-.181 1.115v.557h2.93v3.015h-2.904v10.894h-3.994zM133.629 66.244h5.265c0-1.875-.13-2.382-.312-2.584-.155-.153-.388-.228-1.192-.228h-2.153c-.675 0-1.09.05-1.27.253-.183.177-.312.608-.338 2.559zm0 2.377c.026 2.204.181 2.589.337 2.766.181.202.596.253 1.271.253h2.412c.804 0 1.011-.076 1.167-.253.13-.152.182-.27.207-1.259h3.658c-.027 2.078-.26 2.88-.96 3.564-.441.431-1.012.811-2.542.811h-5.29c-1.453 0-2.205-.228-2.828-.861-.934-.912-1.297-2.002-1.297-6.106s.363-5.194 1.297-6.131c.597-.608 1.375-.837 2.827-.837h4.824c1.453 0 2.23.229 2.827.837.934.912 1.142 2.001 1.142 6.004v.655c0 .405-.104.557-.571.557h-8.481zM147.02 72.78h9.234v1.723h-11.282V56.768h2.049zM160.028 72.451c.311.279.7.38 1.686.38h3.216c.985 0 1.375-.101 1.66-.38.415-.405.648-1.064.648-4.737 0-3.65-.233-4.308-.648-4.713-.285-.304-.675-.38-1.66-.38h-3.216c-.985 0-1.375.076-1.686.38-.415.405-.623 1.064-.623 4.713 0 3.673.208 4.332.623 4.737m-1.348 1.292c-.883-.861-1.194-1.95-1.194-6.03 0-4.053.311-5.143 1.194-6.005.596-.582 1.4-.76 2.826-.76h3.631c1.4 0 2.23.178 2.802.76.907.862 1.218 1.952 1.218 6.006 0 4.078-.31 5.168-1.218 6.03-.571.582-1.401.76-2.802.76h-3.63c-1.427 0-2.23-.178-2.827-.76M182.27 69.917c-.079 2.458-.338 3.243-1.013 3.902-.492.482-1.14.684-2.464.684h-3.656c-1.427 0-2.231-.177-2.827-.76-.882-.861-1.193-1.95-1.193-6.03 0-4.053.31-5.143 1.193-6.004.596-.583 1.4-.76 2.827-.76h3.63c1.375 0 1.972.177 2.49.684.649.633.908 1.494.96 3.75h-1.868c-.077-1.723-.233-2.129-.518-2.408-.286-.279-.597-.354-1.453-.354h-3.034c-.986 0-1.374.075-1.686.38-.415.405-.622 1.064-.622 4.713 0 3.673.207 4.332.622 4.737.312.279.7.38 1.686.38h3.034c.856 0 1.194-.076 1.505-.354.31-.305.466-.837.518-2.56h1.868zM184.41 74.503V56.262h1.918v10.616h1.427l5.11-5.93h2.308l-5.914 6.613 6.12 6.942h-2.411l-5.265-6.055h-1.375v6.055z"/>
            <path fill="#D0202E" d="M93.603 56.883c-1.515-1.41-4.736-1.71-8.857-1.71-4.12 0-7.34.3-8.856 1.71s-1.752 3.59-1.752 8.591c0 5.003.236 7.182 1.752 8.593 1.515 1.41 4.736 1.71 8.856 1.71s7.342-.3 8.857-1.71c1.516-1.41 1.753-3.59 1.753-8.593 0-5.002-.237-7.18-1.753-8.591"/>
            <path fill="#FFF" d="M87.344 60.216h-1.1c0-.808-.672-1.464-1.497-1.464-.826 0-1.498.656-1.498 1.464h-1.1c0-1.4 1.166-2.538 2.598-2.538s2.597 1.139 2.597 2.538M85.177 64.453v1.474h-.86v-1.474a.932.932 0 0 1-.528-.834c0-.518.43-.936.958-.936s.957.418.957.936c0 .365-.215.68-.527.834zm-4.114-3.35v6.462h1.222v5.374h1.842v-3.917h1.24v3.917h1.842v-5.374h1.221v-6.461h-7.367z"/>
            <path fill="#000" d="M199.837 60.345l-.45 1.678-.476-1.678h-.74v2.299h.47v-1.758l.5 1.758h.441l.509-1.758v1.758h.484v-2.3h-.738zm-3.86 0v.377h.618v1.922h.493v-1.922h.61v-.377h-1.721z"/>
        </g>
        <path d="M0 0h250v77H0z"/>
    </g>
</svg>
