<svg xmlns="http://www.w3.org/2000/svg" width="70" height="70" viewBox="0 0 70 70">
    <g fill="none" fill-rule="evenodd">
        <path d="M0-1h70v70H0z"/>
        <path fill="#FFF" d="M46.195 62.926C57 58.506 64.615 47.883 64.615 35.48 64.615 19.114 51.356 5.846 35 5.846c-16.356 0-29.615 13.268-29.615 29.635 0 12.371 7.575 22.971 18.337 27.41l.109.041a2.695 2.695 0 0 1-1.987 5.008l-.002.005C9.032 62.74 0 50.167 0 35.48 0 16.139 15.67.458 35 .458s35 15.68 35 35.023c0 14.658-8.999 27.213-21.77 32.434l-.034.013a2.695 2.695 0 1 1-2.001-5.002zm-3.546-8.921C50.01 50.988 55.192 43.75 55.192 35.3c0-11.16-9.04-20.206-20.192-20.206-11.152 0-20.192 9.047-20.192 20.206 0 8.446 5.18 15.683 12.534 18.701l.083.032a2.695 2.695 0 0 1-1.993 5.006l-.001.003C16.046 55.25 9.423 46.049 9.423 35.3 9.423 21.165 20.874 9.706 35 9.706c14.126 0 25.577 11.459 25.577 25.594 0 10.711-6.576 19.886-15.91 23.702V59l-.038.016a2.695 2.695 0 1 1-1.98-5.01zM22.207 39.159l-.97-.686a.577.577 0 0 1-.116-.832L22.44 36l-1.926-.506a.577.577 0 0 1-.406-.726l.338-1.113a.577.577 0 0 1 .74-.378l1.964.676-.146-2.065a.577.577 0 0 1 .576-.617h1.286a.577.577 0 0 1 .575.622l-.164 2.06 1.989-.678a.577.577 0 0 1 .738.379l.338 1.113a.577.577 0 0 1-.407.726L25.986 36l1.318 1.64a.577.577 0 0 1-.117.832l-.969.686A.577.577 0 0 1 25.4 39l-1.187-1.846L23.026 39a.577.577 0 0 1-.819.159zm10.756 0l-.97-.686a.577.577 0 0 1-.116-.832L33.195 36l-1.927-.506a.577.577 0 0 1-.405-.726l.338-1.113a.577.577 0 0 1 .74-.378l1.963.676-.145-2.065a.577.577 0 0 1 .575-.617h1.287a.577.577 0 0 1 .575.622l-.164 2.06 1.989-.678a.577.577 0 0 1 .738.379l.338 1.113a.577.577 0 0 1-.407.726L36.742 36l1.317 1.64a.577.577 0 0 1-.116.832l-.97.686a.577.577 0 0 1-.818-.159l-1.187-1.846L33.781 39a.577.577 0 0 1-.818.159zm10.77 0l-.97-.686a.577.577 0 0 1-.117-.832L43.964 36l-1.926-.506a.577.577 0 0 1-.406-.726l.338-1.113a.577.577 0 0 1 .74-.378l1.964.676-.146-2.065a.577.577 0 0 1 .576-.617h1.286a.577.577 0 0 1 .575.622l-.164 2.06 1.989-.678a.577.577 0 0 1 .738.379l.338 1.113a.577.577 0 0 1-.407.726L47.511 36l1.318 1.64a.577.577 0 0 1-.117.832l-.969.686a.577.577 0 0 1-.818-.159l-1.187-1.846L44.55 39a.577.577 0 0 1-.819.159z"/>
    </g>
</svg>
