<svg xmlns="http://www.w3.org/2000/svg" width="53" height="48" viewBox="0 0 53 48">
    <g fill="none" fill-rule="nonzero">
        <path fill="#FB6A53" d="M45.664 47.845H7.178c-2.59 0-4.912-1.345-6.207-3.599a7.145 7.145 0 0 1 0-7.194L20.214 3.598C21.51 1.345 23.83 0 26.421 0c2.59 0 4.912 1.345 6.207 3.598L51.87 37.052a7.145 7.145 0 0 1 0 7.194c-1.295 2.254-3.616 3.599-6.207 3.599z"/>
        <path fill="#FFF" d="M30 18.591v8.598c0 1.985-1.566 3.592-3.5 3.592h-.019c-1.922-.01-3.48-1.614-3.48-3.592v-8.598c0-1.975 1.558-3.582 3.48-3.591h.02C28.433 15 30 16.609 30 18.591zM26.5 40c-1.933 0-3.5-1.608-3.5-3.591 0-1.984 1.567-3.592 3.5-3.592 1.932 0 3.5 1.608 3.5 3.592C30 38.392 28.431 40 26.5 40z"/>
    </g>
</svg>
