<svg xmlns="http://www.w3.org/2000/svg" xmlns:xlink="http://www.w3.org/1999/xlink" width="869" height="510" viewBox="0 0 869 510">
    <defs>
        <filter id="a" width="128.4%" height="161%" x="-14.2%" y="-30.5%" filterUnits="objectBoundingBox">
            <feOffset dx="5" dy="5" in="SourceAlpha" result="shadowOffsetOuter1"/>
            <feGaussianBlur in="shadowOffsetOuter1" result="shadowBlurOuter1" stdDeviation="25"/>
            <feColorMatrix in="shadowBlurOuter1" result="shadowMatrixOuter1" values="0 0 0 0 0.62745098 0 0 0 0 0.62745098 0 0 0 0 0.62745098 0 0 0 0.5 0"/>
            <feMerge>
                <feMergeNode in="shadowMatrixOuter1"/>
                <feMergeNode in="SourceGraphic"/>
            </feMerge>
        </filter>
        <circle id="b" cx="56.5" cy="56.5" r="56.5"/>
        <filter id="c" width="144.2%" height="144.2%" x="-20.4%" y="-17.7%" filterUnits="objectBoundingBox">
            <feOffset dx="2" dy="5" in="SourceAlpha" result="shadowOffsetOuter1"/>
            <feGaussianBlur in="shadowOffsetOuter1" result="shadowBlurOuter1" stdDeviation="7.5"/>
            <feColorMatrix in="shadowBlurOuter1" values="0 0 0 0 0 0 0 0 0 0 0 0 0 0 0 0 0 0 0.7 0"/>
        </filter>
        <filter id="d" width="115.9%" height="144.2%" x="-7.9%" y="-22%" filterUnits="objectBoundingBox">
            <feOffset dx="5" dy="5" in="SourceAlpha" result="shadowOffsetOuter1"/>
            <feGaussianBlur in="shadowOffsetOuter1" result="shadowBlurOuter1" stdDeviation="25"/>
            <feColorMatrix in="shadowBlurOuter1" result="shadowMatrixOuter1" values="0 0 0 0 0.62745098 0 0 0 0 0.62745098 0 0 0 0 0.62745098 0 0 0 0.497486888 0"/>
            <feMerge>
                <feMergeNode in="shadowMatrixOuter1"/>
                <feMergeNode in="SourceGraphic"/>
            </feMerge>
        </filter>
        <linearGradient id="f" x1="50%" x2="50%" y1="0%" y2="100%">
            <stop offset="0%" stop-color="#F4F4F4" stop-opacity="0"/>
            <stop offset="72.292%" stop-color="#F4F4F4"/>
            <stop offset="100%" stop-color="#F4F4F4"/>
        </linearGradient>
    </defs>
    <g fill="none" fill-rule="evenodd">
        <path fill="#F4F4F4" d="M0 0h869v510H0z"/>
        <g filter="url(#a)" transform="translate(59 65)">
            <path fill="#FFF" stroke="#CBCBCB" stroke-width=".5" d="M0 32h750v317H0z"/>
            <path fill="#ECECEC" stroke="#CBCBCB" stroke-width=".5" d="M0 .243h750v32.095H0z"/>
            <rect width="528.947" height="22.782" x="98.684" y="5.231" fill="#FFF" stroke="#CCC" stroke-width=".5" rx="2"/>
            <path fill="#000" d="M75.642 13.568v-2.893H72.77v.413h2.134a4.964 4.964 0 0 0-2.955 4.546c0 2.737 2.207 4.96 4.926 4.96 2.718 0 4.925-2.223 4.925-4.96 0-2.598-1.988-4.732-4.515-4.942v.415c2.3.209 4.105 2.157 4.105 4.527 0 2.51-2.023 4.546-4.515 4.546-2.492 0-4.516-2.037-4.516-4.546a4.55 4.55 0 0 1 2.874-4.236v2.17h.41z"/>
            <g stroke="#979797">
                <path stroke-linecap="square" d="M50.214 15.945h-9.299"/>
                <path d="M46.514 11.327l4.63 4.599-4.65 4.618"/>
            </g>
            <g stroke="#979797">
                <path stroke-linecap="square" d="M11.779 15.945h9.299"/>
                <path d="M15.48 11.327l-4.631 4.599 4.65 4.618"/>
            </g>
            <path fill="#434343" d="M649.5 8c4.694 0 8.5 3.94 8.5 8.799 0 3.682-2.185 6.836-5.287 8.148a.647.647 0 0 1-.86-.37.685.685 0 0 1 .362-.882l.004-.001c2.624-1.11 4.473-3.78 4.473-6.895 0-4.112-3.22-7.445-7.192-7.445s-7.192 3.333-7.192 7.445c0 3.108 1.84 5.77 4.453 6.886l.026.01c.335.14.497.535.362.882a.647.647 0 0 1-.844.377C643.194 23.648 641 20.489 641 16.8c0-4.86 3.806-8.799 8.5-8.799zm0 2.267c3.443 0 6.233 2.884 6.233 6.443 0 2.697-1.602 5.006-3.877 5.967a.65.65 0 0 1-.864-.37.686.686 0 0 1 .372-.888c1.794-.76 3.057-2.582 3.057-4.71 0-2.808-2.203-5.086-4.921-5.086-2.718 0-4.921 2.278-4.921 5.087 0 2.126 1.262 3.948 3.055 4.708l.01.004.01.004c.336.14.498.536.362.883a.65.65 0 0 1-.848.377v.001c-2.287-.954-3.901-3.271-3.901-5.977 0-3.559 2.79-6.443 6.233-6.443zm-2.833 5.666a.31.31 0 0 1 .308.333l-.03.406.369-.132a.306.306 0 0 1 .395.203.318.318 0 0 1-.216.394l-.005.002-.356.096.253.328a.315.315 0 0 1-.063.446.296.296 0 0 1-.428-.083l-.23-.374-.231.374a.296.296 0 0 1-.428.083.315.315 0 0 1-.067-.44l.004-.006.253-.328-.35-.096a.319.319 0 0 1-.221-.396.305.305 0 0 1 .378-.207l.017.005.364.13-.028-.404a.312.312 0 0 1 .312-.334zm3.4 0a.31.31 0 0 1 .308.333l-.03.406.369-.132a.306.306 0 0 1 .395.203.318.318 0 0 1-.216.394l-.005.002-.356.096.253.328a.315.315 0 0 1-.063.446.296.296 0 0 1-.428-.083l-.23-.374-.231.374a.296.296 0 0 1-.428.083.315.315 0 0 1-.067-.44l.004-.006.253-.328-.35-.096a.319.319 0 0 1-.221-.396.305.305 0 0 1 .378-.207l.017.005.364.13-.028-.404a.312.312 0 0 1 .312-.334zm2.266 0a.31.31 0 0 1 .31.31l-.001.023-.03.406.368-.132a.306.306 0 0 1 .39.186l.006.017a.318.318 0 0 1-.222.396l-.355.096.252.328a.315.315 0 0 1-.057.442l-.005.004a.296.296 0 0 1-.415-.063l-.013-.02-.23-.374-.231.374a.296.296 0 0 1-.408.097l-.02-.014a.315.315 0 0 1-.067-.44l.004-.006.253-.328-.35-.096a.319.319 0 0 1-.221-.396.305.305 0 0 1 .395-.202l.363.13-.027-.404a.312.312 0 0 1 .311-.334z"/>
        </g>
        <g transform="translate(667 26.976)">
            <mask id="e" fill="#fff">
                <use xlink:href="#b"/>
            </mask>
            <use fill="#000" filter="url(#c)" xlink:href="#b"/>
            <use fill="#F8F8F8" xlink:href="#b"/>
            <g filter="url(#d)" mask="url(#e)">
                <path fill="#FFF" stroke="#CBCBCB" stroke-width=".5" d="M-1096 84H244v422h-1340z"/>
                <g stroke-width=".5" transform="translate(-1096 26)">
                    <path fill="#ECECEC" stroke="#CBCBCB" d="M0 .663h1340v57.25H0z"/>
                    <rect width="945.053" height="40.639" x="176.316" y="7.776" fill="#FFF" stroke="#CCC" rx="2"/>
                </g>
                <path fill="#434343" d="M66 38c8.837 0 16 7.415 16 16.562 0 6.932-4.114 12.87-9.952 15.339l-.015.006c-.63.263-1.348-.052-1.603-.704-.254-.653.05-1.395.68-1.659l.004-.001.004-.002c4.94-2.09 8.42-7.113 8.42-12.979 0-7.74-6.06-14.014-13.538-14.014-7.477 0-13.538 6.275-13.538 14.014 0 5.85 3.463 10.864 8.382 12.963l.05.02c.63.263.935 1.005.68 1.658-.253.647-.961.963-1.588.71l-.001.002C54.129 67.454 50 61.507 50 54.562 50 45.415 57.163 38 66 38zm0 4.267c6.48 0 11.733 5.43 11.733 12.128 0 5.076-3.016 9.424-7.298 11.232a1.272 1.272 0 0 1-.018.007c-.632.264-1.352-.052-1.608-.706-.255-.654.05-1.398.683-1.662a1.31 1.31 0 0 1 .017-.007c3.376-1.43 5.754-4.86 5.754-8.864 0-5.288-4.147-9.575-9.263-9.575s-9.263 4.287-9.263 9.575c0 4.003 2.376 7.432 5.75 8.862l.038.016c.632.264.938 1.008.682 1.662-.254.65-.967.965-1.596.71v.001c-4.306-1.797-7.344-6.157-7.344-11.251 0-6.698 5.253-12.128 11.733-12.128zm-5.327 10.666a.577.577 0 0 1 .575.621l-.058.769.695-.247c.3-.106.628.05.734.35l.01.031.007.021a.577.577 0 0 1-.403.718l-.69.188.486.63a.577.577 0 0 1-.115.817l-.013.01a.558.558 0 0 1-.78-.119l-.026-.038-.434-.703-.434.703a.558.558 0 0 1-.768.182l-.038-.026-.013-.01a.577.577 0 0 1-.122-.806l.007-.01.486-.63-.68-.187a.577.577 0 0 1-.402-.718l.007-.022a.573.573 0 0 1 .744-.38l.684.246-.052-.774a.577.577 0 0 1 .536-.614l.02-.001h.037zm5.4 0a.577.577 0 0 1 .575.621l-.058.769.695-.247c.3-.106.628.05.734.35l.01.031.007.021a.577.577 0 0 1-.403.718l-.69.188.486.63a.577.577 0 0 1-.115.817l-.013.01a.558.558 0 0 1-.78-.119l-.026-.038-.434-.703-.434.703a.558.558 0 0 1-.768.182l-.038-.026-.013-.01a.577.577 0 0 1-.122-.806l.007-.01.486-.63-.68-.187a.577.577 0 0 1-.402-.718l.007-.022a.573.573 0 0 1 .744-.38l.684.246-.053-.774a.577.577 0 0 1 .537-.614l.02-.001h.037zm5.267 0a.577.577 0 0 1 .575.621l-.059.769.696-.247a.575.575 0 0 1 .744.381l.006.021a.577.577 0 0 1-.402.718l-.691.188.486.63a.577.577 0 0 1-.114.817l-.014.01a.558.558 0 0 1-.806-.157l-.434-.703-.434.703a.558.558 0 0 1-.767.182l-.039-.026-.013-.01a.577.577 0 0 1-.114-.816l.486-.63-.68-.187a.577.577 0 0 1-.402-.718l.006-.022a.573.573 0 0 1 .745-.38l.684.246-.053-.774a.577.577 0 0 1 .537-.614l.02-.001h.037z"/>
            </g>
        </g>
        <path fill="url(#f)" d="M0 182h869v284H0z"/>
        <circle cx="723.5" cy="83.476" r="56.5" stroke="#485767" stroke-width="7"/>
        <path fill="#485767" fill-rule="nonzero" d="M807.891 2.06L793.13 42.38a3.5 3.5 0 0 1-6.573-2.406l8.028-21.931-29.366 25.111a3.5 3.5 0 0 1-4.796-.233l-.138-.152a3.5 3.5 0 0 1 .385-4.935l29.366-25.111-22.91 4.527a3.5 3.5 0 0 1-4.07-2.568l-.042-.188a3.5 3.5 0 0 1 2.755-4.112l42.123-8.321z"/>
    </g>
</svg>
