<svg xmlns="http://www.w3.org/2000/svg" xmlns:xlink="http://www.w3.org/1999/xlink" width="50" height="50" viewBox="0 0 50 50">
    <defs>
        <path id="a" d="M49.988 49.617H0V.012h49.988v49.605z"/>
    </defs>
    <g fill="none" fill-rule="evenodd">
        <path fill="#FFF" d="M46.488 24.883c0 11.78-9.623 21.33-21.495 21.33-11.87 0-21.494-9.55-21.494-21.33 0-11.78 9.623-21.33 21.494-21.33 11.872 0 21.495 9.55 21.495 21.33"/>
        <g transform="translate(0 .042)">
            <mask id="b" fill="#fff">
                <use xlink:href="#a"/>
            </mask>
            <path fill="#FFC20E" d="M24.994 43.144c-10.217 0-18.499-8.219-18.499-18.357 0-10.139 8.282-18.358 18.499-18.358 10.217 0 18.499 8.22 18.499 18.358s-8.282 18.357-18.499 18.357m0-43.132C11.19.012 0 11.117 0 24.815s11.19 24.802 24.994 24.802 24.994-11.104 24.994-24.802S38.798.012 24.994.012" mask="url(#b)"/>
        </g>
        <path fill="#000" d="M22.543 34.261v-7.094h4.766v7.094h5.957v-9.458h3.574L24.926 14.162 13.01 24.802h3.575v9.46z"/>
        <g transform="translate(28 28)">
            <circle cx="11" cy="11" r="11" fill="#0089C6"/>
            <g fill="#FFF">
                <path d="M12.465 7H10V3.945h2.465zM12.465 19H10V9.834h2.465z"/>
            </g>
        </g>
    </g>
</svg>
