<svg xmlns="http://www.w3.org/2000/svg" width="50" height="50" viewBox="0 0 50 50">
    <g fill="none" fill-rule="evenodd">
        <path fill="#FFF" d="M46.488 24.955c0 11.815-9.623 21.393-21.495 21.393-11.87 0-21.494-9.578-21.494-21.393 0-11.814 9.623-21.392 21.494-21.392 11.872 0 21.495 9.578 21.495 21.392"/>
        <path fill="#FFC20E" d="M24.994 43.312c-10.217 0-18.499-8.243-18.499-18.411 0-10.168 8.282-18.41 18.499-18.41 10.217 0 18.499 8.242 18.499 18.41s-8.282 18.41-18.499 18.41m0-43.257C11.19.054 0 11.191 0 24.93s11.19 24.875 24.994 24.875 24.994-11.137 24.994-24.875S38.798.054 24.994.054"/>
        <path fill="#000" d="M19.236 24.748a.93.93 0 0 1-.701-.29l-2.499-2.495a.947.947 0 0 1-.295-.695.997.997 0 0 1 1.003-.99c.257 0 .492.095.7.28l.007.008 1.794 1.793 4.389-4.367a.958.958 0 0 1 .698-.287.97.97 0 0 1 .707.286.964.964 0 0 1 .296.704.967.967 0 0 1-.296.695l-5.096 5.072a.969.969 0 0 1-.707.286"/>
        <path fill="#000" d="M24.332 17.529c-.316 0-.6.116-.823.337l-4.263 4.243-1.67-1.668-.006-.007-.007-.006a1.2 1.2 0 0 0-.82-.326c-.31 0-.596.115-.826.332l-.003.003-.003.003a1.147 1.147 0 0 0-.348.828c0 .316.125.608.35.823l2.496 2.492c.215.224.5.342.827.342.327 0 .607-.114.833-.338l5.096-5.071a1.149 1.149 0 0 0 0-1.649 1.143 1.143 0 0 0-.833-.338m0 .353c.228 0 .421.076.581.235a.79.79 0 0 1 .244.578c0 .218-.084.41-.244.57l-5.095 5.072a.79.79 0 0 1-.582.234.759.759 0 0 1-.572-.234l-2.502-2.499a.772.772 0 0 1-.244-.57.821.821 0 0 1 .825-.813c.22 0 .413.084.582.235l1.92 1.92 4.514-4.493a.785.785 0 0 1 .573-.235"/>
        <path fill="#000" d="M20.876 28.096c-3.973 0-7.206-3.217-7.206-7.17 0-3.954 3.233-7.172 7.206-7.172 3.97 0 7.205 3.218 7.205 7.171 0 3.954-3.235 7.171-7.205 7.171M36.3 33.158l-6.365-6.337c-.073-.072-.155-.13-.233-.19a10.378 10.378 0 0 0 1.703-5.706c0-5.787-4.712-10.48-10.53-10.48-5.815 0-10.53 4.693-10.53 10.48 0 5.79 4.715 10.482 10.53 10.482 2.116 0 4.084-.628 5.736-1.697.06.078.117.158.188.231l6.365 6.337a2.222 2.222 0 0 0 3.136 0 2.201 2.201 0 0 0 0-3.12"/>
        <circle cx="39" cy="39" r="11" fill="#0089C6"/>
        <g fill="#FFF">
            <path d="M40.465 35H38v-3.055h2.465zM40.465 47H38v-9.166h2.465z"/>
        </g>
    </g>
</svg>
