<?xml version="1.0" encoding="UTF-8" standalone="no"?>
<svg width="98px" height="38px" viewBox="0 0 98 38" version="1.1" xmlns="http://www.w3.org/2000/svg" xmlns:xlink="http://www.w3.org/1999/xlink">
    <!-- Generator: sketchtool 3.8.3 (29802) - http://www.bohemiancoding.com/sketch -->
    <title>52DDA48C-6568-450C-847B-FD95091FEF78</title>
    <desc>Created with sketchtool.</desc>
    <defs>
        <polygon id="path-1" points="1.38971107 1.4866486 1.38971107 0.28596089 0.34348737 0.28596089 0.34348737 1.4866486 1.38971107 1.4866486"></polygon>
        <polygon id="path-3" points="32.5833747 32.8690678 0 32.8690678 0 0.0944180085 32.5833747 0.0944180085"></polygon>
        <polygon id="path-5" points="0 37.8449935 97.4969775 37.8449935 97.4969775 -0.000193347458 0 -0.000193347458"></polygon>
    </defs>
    <g id="Welcome" stroke="none" stroke-width="1" fill="none" fill-rule="evenodd">
        <g id="Extension-UI-Assets" transform="translate(-161.000000, -76.000000)">
            <g id="main-UI" transform="translate(20.000000, 25.000000)">
                <g id="logo_norton-header" transform="translate(141.000000, 51.000000)">
                    <path d="M79.8021561,20.3707659 C78.2631584,20.3707659 77.0124825,19.1159409 77.0124825,17.5659388 C77.0124825,16.0165811 78.2631584,14.7604672 79.8021561,14.7604672 C81.3424352,14.7604672 82.5918297,16.0165811 82.5918297,17.5659388 C82.5918297,19.1159409 81.3424352,20.3707659 79.8021561,20.3707659 L79.8021561,20.3707659 Z M79.8021561,12.0967837 C76.7997651,12.0967837 74.3663291,14.546496 74.3663291,17.5659388 C74.3663291,20.5860261 76.7997651,23.0344494 79.8021561,23.0344494 C82.8051878,23.0344494 85.2392645,20.5860261 85.2392645,17.5659388 C85.2392645,14.546496 82.8051878,12.0967837 79.8021561,12.0967837 L79.8021561,12.0967837 Z" id="Fill-1" fill="#1D1C1B"></path>
                    <path d="M54.8693683,20.3707659 C53.3303706,20.3707659 52.0796948,19.1159409 52.0796948,17.5659388 C52.0796948,16.0165811 53.3303706,14.7604672 54.8693683,14.7604672 C56.4096475,14.7604672 57.6590419,16.0165811 57.6590419,17.5659388 C57.6590419,19.1159409 56.4096475,20.3707659 54.8693683,20.3707659 M54.8693683,12.0967837 C51.8669773,12.0967837 49.4335413,14.546496 49.4335413,17.5659388 C49.4335413,20.5860261 51.8669773,23.0344494 54.8693683,23.0344494 C57.8724001,23.0344494 60.3064768,20.5860261 60.3064768,17.5659388 C60.3064768,14.546496 57.8724001,12.0967837 54.8693683,12.0967837" id="Fill-3" fill="#1D1C1B"></path>
                    <path d="M74.0157298,20.5242838 C73.6716658,20.6248244 73.1475608,20.7247206 72.9457356,20.7247206 C72.0173394,20.7247206 71.8142327,20.4024749 71.8142327,19.5072761 L71.8142327,14.4557516 L74.0368734,14.4557516 L74.0368734,12.3437528 L71.8142327,12.3437528 L71.8142327,9.35911258 L69.3141623,9.35911258 L68.7874945,12.3437528 L67.0466716,12.3437528 L67.0466716,12.3463308 L66.9037921,12.3463308 C65.4788417,12.3521312 64.4050032,13.2260617 63.7155937,14.5956062 L62.846784,12.3437528 L61.0527817,12.3437528 L61.0527817,22.8367194 L64.1186035,22.8367194 L64.1186035,18.2711414 C64.1186035,15.9715956 65.4698717,14.499577 67.070378,14.4557516 L68.7471295,14.4557516 L68.7471295,19.670977 C68.7471295,22.1264897 69.9997275,23.0403787 72.0372016,23.0403787 C73.0886151,23.0403787 73.8939939,22.8180291 74.3783746,22.6556172 L74.0157298,20.5242838 Z" id="Fill-5" fill="#1D1C1B"></path>
                    <polyline id="Fill-7" fill="#1D1C1B" points="88.9524008 15.6629486 88.9524008 22.8367838 85.9730755 22.8367838 85.9730755 12.3438173 87.7811736 12.3438173 88.3879308 13.9473122"></polyline>
                    <path d="M88.3742836,13.9573018 C89.2802547,12.8996912 90.5206792,12.0992328 91.9718989,12.0992328 C94.45467,12.0992328 95.4746884,14.0894226 95.4746884,15.9358908 L95.4746884,22.8364616 L92.4063037,22.8364616 L92.4063037,16.0241861 C92.4063037,15.124476 91.6630742,14.6359514 90.8544918,14.6359514 C89.9959335,14.6359514 89.4429964,15.1315654 88.9573343,15.6606929" id="Fill-9" fill="#1D1C1B"></path>
                    <polygon id="Fill-11" fill="#1D1C1B" points="37.4771567 8.54453975 40.8921682 8.54453975 45.5822028 17.5306851 45.5822028 8.54453975 48.4116007 8.54453975 48.4116007 22.8393618 45.3182282 22.8393618 40.3065546 12.9580177 40.3065546 22.8393618 37.4771567 22.8393618"></polygon>
                    <polygon id="Fill-13" fill="#1D1C1B" points="96.2855775 12.3511 96.2855775 12.5534704 95.9902078 12.5534704 95.9902078 13.5517878 95.7601911 13.5517878 95.7601911 12.5534704 95.4712285 12.5534704 95.4712285 12.3511"></polygon>
                    <g id="Group-17" transform="translate(96.107266, 12.065333)">
                        <mask id="mask-2" fill="white">
                            <use xlink:href="#path-1"></use>
                        </mask>
                        <g id="Clip-16"></g>
                        <polygon id="Fill-15" fill="#1D1C1B" mask="url(#mask-2)" points="0.34348737 1.4866486 0.34348737 0.28596089 0.656156344 0.28596089 0.863107324 1.07224055 1.07326188 0.28596089 1.38977514 0.28596089 1.38977514 1.4866486 1.19820133 1.4866486 1.19820133 0.546335466 1.19307561 0.546335466 0.951526009 1.4866486 0.783017935 1.4866486 0.538905479 0.546335466 0.535061188 0.546335466 0.535061188 1.4866486"></polygon>
                    </g>
                    <path d="M41.1737625,31.2666685 C41.1737625,30.3514906 40.8854407,29.2790567 39.8519672,29.2790567 C39.3746345,29.2790567 38.9306189,29.5020507 38.5423456,29.9158143 L38.5423456,32.9204338 C38.8973017,33.3122846 39.2304736,33.512077 39.7302314,33.512077 C40.6631126,33.512077 41.1737625,32.6967952 41.1737625,31.2666685 M38.3533346,33.5011206 L38.1418986,34.1829927 L37.5646143,34.1829927 L37.5646143,26.3298634 L38.5423456,26.3298634 L38.5423456,29.1894723 C38.8639845,28.832424 39.4079517,28.452174 40.0742954,28.452174 C41.5626766,28.452174 42.2181281,29.9370825 42.2181281,31.2666685 C42.2181281,33.0538435 41.2961391,34.272577 39.9186016,34.272577 C39.2080486,34.272577 38.7300751,33.9703105 38.3533346,33.5011206" id="Fill-18" fill="#B2B2B1"></path>
                    <path d="M42.8599965,28.5640578 L43.8595121,28.5640578 C43.8595121,28.5640578 45.2588339,33.3010705 45.2588339,33.3120268 L46.5690963,28.5640578 L47.5359354,28.5640578 L45.6586401,34.6074548 C45.3363604,35.6457306 44.7815012,36.2277065 43.7038183,36.2277065 C43.4923824,36.2277065 43.2489106,36.1935484 43.0265825,36.1265213 L43.1483183,35.4117802 C43.29312,35.4343374 43.4263887,35.4672065 43.6153997,35.4672065 C44.192684,35.4672065 44.6258074,35.199098 44.8481355,34.5069141 L42.8599965,28.5640578 Z" id="Fill-20" fill="#B2B2B1"></path>
                    <path d="M50.464452,33.367582 L50.9424254,32.6753981 C51.4191175,33.0440472 52.1187784,33.4346091 53.1413597,33.4346091 C54.1620189,33.4346091 54.7514768,32.9435066 54.7514768,32.1050231 C54.7514768,31.1672879 54.0293908,30.8650214 52.9959174,30.5079731 C51.8861988,30.1161222 50.8636175,29.6140633 50.8636175,28.1839367 C50.8636175,26.9097769 51.8637738,26.217593 53.1849283,26.217593 C54.1184502,26.217593 54.6739502,26.37356 55.2736596,26.7202964 L54.8732126,27.4801519 C54.3965206,27.2120434 53.8743378,27.0560765 53.1740362,27.0560765 C52.3417472,27.0560765 51.7747144,27.3796112 51.7747144,28.1723358 C51.7747144,29.0108193 52.3193222,29.2789278 53.4629987,29.680446 C54.5515736,30.060696 55.706783,30.5414867 55.706783,32.0824659 C55.706783,33.4571663 54.7405846,34.2724481 53.1413597,34.2724481 C51.8746659,34.2724481 50.9859941,33.8032583 50.464452,33.367582" id="Fill-22" fill="#B2B2B1"></path>
                    <path d="M56.303481,28.5640578 L57.3023558,28.5640578 C57.3023558,28.5640578 58.7023183,33.3010705 58.7023183,33.3120268 L60.0125807,28.5640578 L60.9787791,28.5640578 L59.1014839,34.6074548 C58.7798449,35.6457306 58.2243449,36.2277065 57.1466621,36.2277065 C56.9352261,36.2277065 56.6911136,36.1935484 56.4700669,36.1265213 L56.5911621,35.4117802 C56.7366044,35.4343374 56.8692324,35.4672065 57.0582434,35.4672065 C57.6361684,35.4672065 58.0692918,35.199098 58.2909792,34.5069141 L56.303481,28.5640578 Z" id="Fill-24" fill="#B2B2B1"></path>
                    <path d="M67.9076645,28.4520451 C69.0404488,28.4520451 69.3294114,29.4123375 69.3294114,30.3404053 L69.3294114,34.1835083 L68.3516801,34.1835083 L68.3516801,30.3404053 C68.3516801,29.7925875 68.2632614,29.2905286 67.5847441,29.2905286 C67.1291957,29.2905286 66.6409708,29.5683044 66.1629973,30.060696 L66.1629973,34.1835083 L65.1859067,34.1835083 L65.1859067,30.3404053 C65.1859067,29.7925875 65.0968473,29.2905286 64.4202522,29.2905286 C63.9531709,29.2905286 63.4540538,29.6140633 62.9985054,30.0722968 L62.9985054,34.1835083 L62.0207741,34.1835083 L62.0207741,28.5641867 L62.5980584,28.5641867 L62.8434523,29.4690528 C63.3541022,28.9102786 63.9871288,28.4520451 64.7418912,28.4520451 C65.4864021,28.4520451 65.8080411,28.8651642 66.0194771,29.4239383 C66.530127,28.8535633 67.1971115,28.4520451 67.9076645,28.4520451" id="Fill-26" fill="#B2B2B1"></path>
                    <path d="M73.8793216,31.2893546 C72.7683216,31.5020368 72.0462356,31.7359872 71.7694467,32.0820792 C71.6240044,32.249647 71.5919686,32.4069029 71.5919686,32.6524542 C71.5919686,33.200272 71.8585061,33.5122059 72.4575747,33.5122059 C73.0233262,33.5122059 73.5237247,33.2228292 73.8793216,32.9547207 L73.8793216,31.2893546 Z M73.8793216,30.3954449 C73.8793216,29.6362339 73.6454606,29.2566283 72.8355967,29.2566283 C72.2800967,29.2566283 71.7694467,29.4789779 71.2466232,29.7470864 L70.8910263,29.0890606 C71.4689513,28.7204114 72.0910857,28.4523029 72.9131232,28.4523029 C74.3009121,28.4523029 74.8564121,29.2108694 74.8564121,30.462472 L74.8564121,34.1831216 L74.29002,34.1831216 L74.0343746,33.5122059 C73.6454606,33.9040567 73.0348591,34.2727059 72.3127731,34.2727059 C71.3350419,34.2727059 70.6033452,33.6585055 70.6033452,32.7194813 C70.6033452,32.1052809 70.8359248,31.6696046 71.3465747,31.3557372 C71.8469732,31.0438033 72.7356451,30.8195203 73.8793216,30.652597 L73.8793216,30.3954449 Z" id="Fill-28" fill="#B2B2B1"></path>
                    <path d="M76.4872243,28.5640578 L77.0638679,28.5640578 L77.3092618,29.4901921 C77.8199117,28.9101497 78.4747225,28.4519162 79.3076522,28.4519162 C80.517963,28.4519162 80.8293506,29.4128531 80.8293506,30.3402764 L80.8293506,34.1833794 L79.85226,34.1833794 L79.85226,30.3402764 C79.85226,29.7924586 79.7183506,29.2903997 78.9860132,29.2903997 C78.4644711,29.2903997 77.9198633,29.6139344 77.4643148,30.0947251 L77.4643148,34.1833794 L76.4872243,34.1833794 L76.4872243,28.5640578 Z" id="Fill-30" fill="#B2B2B1"></path>
                    <path d="M81.8719863,29.256435 L81.8719863,28.5642511 L82.7267002,28.5642511 L82.9708127,26.9556003 L83.6813657,26.9556003 L83.6813657,28.5642511 L84.9256345,28.5642511 L84.9256345,29.256435 L83.6813657,29.256435 L83.6813657,32.719288 C83.6813657,33.2439041 83.7813173,33.5236134 84.3035001,33.5236134 C84.5149361,33.5236134 84.6924142,33.479788 84.9365266,33.4114719 L85.081969,34.0939884 C84.8590001,34.1945291 84.526469,34.2725125 84.1817642,34.2725125 C83.1707158,34.2725125 82.7042752,33.7807655 82.7042752,32.7760032 L82.7042752,29.256435 L81.8719863,29.256435 Z" id="Fill-32" fill="#B2B2B1"></path>
                    <path d="M89.3115216,30.988506 C89.2775637,29.8039306 88.8899311,29.1897301 88.1012108,29.1897301 C87.3906577,29.1897301 86.9235764,29.7375479 86.8460499,30.988506 L89.3115216,30.988506 Z M88.2569046,33.4910666 C88.9008232,33.4910666 89.3115216,33.2442263 89.7786029,32.9432488 L90.1886606,33.534892 C89.6446935,33.9821691 89.1449357,34.2728348 88.1787373,34.2728348 C86.7352062,34.2728348 85.8125764,33.154642 85.8125764,31.3784233 C85.8125764,29.6479636 86.7012483,28.4517873 88.1012108,28.4517873 C89.5441012,28.4517873 90.3116779,29.5358221 90.3116779,31.4125814 L90.3116779,31.6465318 L86.8460499,31.6465318 C86.8902592,32.8543089 87.3118498,33.4910666 88.2569046,33.4910666 L88.2569046,33.4910666 Z" id="Fill-34" fill="#B2B2B1"></path>
                    <path d="M91.1974025,31.4127103 C91.1974025,29.9716272 91.830429,28.4519162 93.5526712,28.4519162 C94.2632243,28.4519162 94.8078321,28.6310849 95.2954163,29.0435594 L94.8738258,29.7035188 C94.5188696,29.4354103 94.0966384,29.2452853 93.5635634,29.2452853 C92.3974619,29.2452853 92.2199838,30.4524179 92.2199838,31.4127103 C92.2199838,32.3388446 92.4301384,33.4795946 93.5962399,33.4795946 C94.1632727,33.4795946 94.5521868,33.2669124 94.9289273,32.9433777 L95.3960086,33.52342 C94.9968431,33.9378281 94.4182773,34.2723192 93.5526712,34.2723192 C91.852854,34.2723192 91.1974025,32.8202798 91.1974025,31.4127103" id="Fill-36" fill="#B2B2B1"></path>
                    <g id="Group-40" transform="translate(0.000000, 4.975926)">
                        <mask id="mask-4" fill="white">
                            <use xlink:href="#path-3"></use>
                        </mask>
                        <g id="Clip-39"></g>
                        <path d="M16.2919116,5.27806335 C13.3189935,5.27806335 10.522272,6.44394852 8.41560075,8.55981419 C6.31277376,10.6769689 5.15372013,13.4901744 5.15307941,16.4812595 C5.15372013,19.4717002 6.31277376,22.2855502 8.41624146,24.4039939 C10.5209906,26.5185706 13.3177121,27.6844557 16.2919116,27.6857447 C19.2654704,27.6844557 22.0628326,26.5185706 24.1688631,24.4027049 C26.269768,22.2855502 27.4288216,19.4717002 27.4301031,16.4812595 C27.4288216,13.4901744 26.269768,10.6769689 24.1675817,8.55852521 C22.0615512,6.44394852 19.264189,5.27806335 16.2919116,5.27806335 M16.2919116,32.86939 C7.30972647,32.86939 0.000448500578,25.5163862 -0.000192214531,16.4812595 C0.000448500578,7.44548835 7.30972647,0.0944180085 16.2919116,0.0944180085 C25.2740967,0.0944180085 32.5820933,7.44548835 32.5833747,16.4812595 C32.5820933,25.5163862 25.2740967,32.86939 16.2919116,32.86939" id="Fill-38" fill="#FCC200" mask="url(#mask-4)"></path>
                    </g>
                    <mask id="mask-6" fill="white">
                        <use xlink:href="#path-5"></use>
                    </mask>
                    <g id="Clip-42"></g>
                    <polygon id="Fill-41" fill="#FCC200" mask="url(#mask-6)" points="34.0386309 3.82357487 35.3085283 3.82357487 35.3085283 2.54619267 34.0386309 2.54619267"></polygon>
                    <polygon id="Fill-43" fill="#FCC200" mask="url(#mask-6)" points="34.0386309 1.27976682 35.3085283 1.27976682 35.3085283 -0.000193347458 34.0386309 -0.000193347458"></polygon>
                    <polygon id="Fill-44" fill="#FCC200" mask="url(#mask-6)" points="30.4640813 5.06293208 31.6506857 5.06293208 31.6506857 3.81519648 30.4640813 3.81519648"></polygon>
                    <polygon id="Fill-45" fill="#1D1C1B" mask="url(#mask-6)" points="28.1132976 7.45850708 29.3095127 7.45850708 29.3095127 6.26490877 28.1132976 6.26490877"></polygon>
                    <polygon id="Fill-46" fill="#1D1C1B" mask="url(#mask-6)" points="31.6513264 6.26490877 32.981451 6.26490877 32.981451 5.06293208 31.6513264 5.06293208"></polygon>
                    <polygon id="Fill-47" fill="#1D1C1B" mask="url(#mask-6)" points="26.9215675 6.26490877 28.1126569 6.26490877 28.1126569 5.1222253 26.9215675 5.1222253"></polygon>
                    <polygon id="Fill-48" fill="#1D1C1B" mask="url(#mask-6)" points="30.4640813 7.45850708 31.6506857 7.45850708 31.6506857 6.26490877 30.4640813 6.26490877"></polygon>
                    <polygon id="Fill-49" fill="#1D1C1B" mask="url(#mask-6)" points="32.7821886 2.54683716 34.0386309 2.54683716 34.0386309 1.28041131 32.7821886 1.28041131"></polygon>
                    <polygon id="Fill-50" fill="#1D1C1B" mask="url(#mask-6)" points="30.464722 3.81519648 32.7821886 3.81519648 32.7821886 2.54619267 30.464722 2.54619267"></polygon>
                    <polygon id="Fill-51" fill="#1D1C1B" mask="url(#mask-6)" points="29.3095127 6.26490877 30.464722 6.26490877 30.464722 3.81519648 29.3095127 3.81519648"></polygon>
                    <path d="M29.3095768,7.45824928 L29.3095768,8.66022597 L28.1133616,8.66022597 L28.1133616,7.45824928 L26.1284262,7.45824928 L26.1284262,8.32444589 L25.0648392,8.32444589 L25.0648392,9.39301284 L26.252725,9.39301284 L26.252725,10.5840332 L25.0648392,10.5840332 L25.0648392,9.39301284 L23.8019897,9.39301284 L23.8019897,11.2607493 L22.6083374,11.2607493 L22.6083374,12.4530586 L21.8157728,12.4530586 L21.8157728,13.6498794 L20.945041,13.6498794 C19.966669,15.1141641 17.5133709,19.6771641 16.7727042,21.5352332 C14.1002815,17.7939599 12.0250052,16.3109849 10.3911817,15.7747679 C9.50955773,15.5079484 8.44789279,16.4733967 9.91192682,17.9931078 C13.2743997,21.7124683 14.3328611,24.7924933 15.3548017,27.2499395 C15.8955652,28.5453675 18.3193905,28.7464489 18.806334,27.4271747 C19.8417296,24.6391044 21.3422844,21.5062311 23.1189874,18.9334209 L23.1189874,17.5999679 L24.066605,17.5999679 L24.066605,16.3979912 L25.0648392,16.3979912 L25.0648392,15.0046006 L26.2559285,15.0046006 L26.2559285,13.6614802 L25.0513841,13.6614802 L25.0513841,12.4401688 L26.2559285,12.4401688 L26.2559285,13.6614802 L27.4348443,13.6614802 L27.4322815,12.4530586 L28.3773363,12.4530586 L28.3773363,10.9939298 L29.4409234,10.9939298 L29.4409234,9.99110097 L30.4647861,9.99110097 L30.4647861,7.45824928 L29.3095768,7.45824928 Z" id="Fill-52" fill="#1D1C1B" mask="url(#mask-6)"></path>
                </g>
            </g>
        </g>
    </g>
</svg>